<?xml version="1.0" encoding="UTF-8" standalone="no"?>
<!DOCTYPE svg PUBLIC "-//W3C//DTD SVG 1.1//EN"
 "http://www.w3.org/Graphics/SVG/1.1/DTD/svg11.dtd">
<!-- Generated by graphviz version 8.1.0 (20230707.2238)
 -->
<!-- Title: snakemake_dag Pages: 1 -->
<svg width="3645pt" height="116pt"
 viewBox="0.00 0.00 3645.00 116.00" xmlns="http://www.w3.org/2000/svg" xmlns:xlink="http://www.w3.org/1999/xlink">
<g id="graph0" class="graph" transform="scale(1 1) rotate(0) translate(4 112)">
<title>snakemake_dag</title>
<polygon fill="white" stroke="none" points="-4,4 -4,-112 3641,-112 3641,4 -4,4"/>
<!-- 0 -->
<g id="node1" class="node">
<title>0</title>
<path fill="none" stroke="#d8bc56" stroke-width="2" d="M2334.5,-36C2334.5,-36 2304.5,-36 2304.5,-36 2298.5,-36 2292.5,-30 2292.5,-24 2292.5,-24 2292.5,-12 2292.5,-12 2292.5,-6 2298.5,0 2304.5,0 2304.5,0 2334.5,0 2334.5,0 2340.5,0 2346.5,-6 2346.5,-12 2346.5,-12 2346.5,-24 2346.5,-24 2346.5,-30 2340.5,-36 2334.5,-36"/>
<text text-anchor="middle" x="2319.5" y="-14.88" font-family="sans" font-size="10.00">all</text>
</g>
<!-- 1 -->
<g id="node2" class="node">
<title>1</title>
<path fill="none" stroke="#56c1d8" stroke-width="2" stroke-dasharray="5,2" d="M637,-108C637,-108 12,-108 12,-108 6,-108 0,-102 0,-96 0,-96 0,-84 0,-84 0,-78 6,-72 12,-72 12,-72 637,-72 637,-72 643,-72 649,-78 649,-84 649,-84 649,-96 649,-96 649,-102 643,-108 637,-108"/>
<text text-anchor="middle" x="324.5" y="-93.25" font-family="sans" font-size="10.00">bwa_map_prog</text>
<text text-anchor="middle" x="324.5" y="-80.5" font-family="sans" font-size="10.00">sample: sync_FLEX&#45;SEQ_RAW_UGA_149001_P001_WA03_RAPiD&#45;Genomics_F165_UGA_149001_P001_WA03_i5&#45;54_i7&#45;82_S3_L002_</text>
</g>
<!-- 1&#45;&gt;0 -->
<g id="edge1" class="edge">
<title>1&#45;&gt;0</title>
<path fill="none" stroke="grey" stroke-width="2" d="M649.66,-72.33C652.28,-72.22 654.9,-72.11 657.5,-72 1304.01,-45.19 2092.49,-24.7 2278.72,-20.01"/>
<polygon fill="grey" stroke="grey" stroke-width="2" points="2278.65,-23.44 2288.56,-19.69 2278.48,-16.44 2278.65,-23.44"/>
</g>
<!-- 2 -->
<g id="node3" class="node">
<title>2</title>
<path fill="none" stroke="#56c1d8" stroke-width="2" stroke-dasharray="5,2" d="M1304,-108C1304,-108 679,-108 679,-108 673,-108 667,-102 667,-96 667,-96 667,-84 667,-84 667,-78 673,-72 679,-72 679,-72 1304,-72 1304,-72 1310,-72 1316,-78 1316,-84 1316,-84 1316,-96 1316,-96 1316,-102 1310,-108 1304,-108"/>
<text text-anchor="middle" x="991.5" y="-93.25" font-family="sans" font-size="10.00">bwa_map_prog</text>
<text text-anchor="middle" x="991.5" y="-80.5" font-family="sans" font-size="10.00">sample: sync_FLEX&#45;SEQ_RAW_UGA_149001_P001_WA01_RAPiD&#45;Genomics_F165_UGA_149001_P001_WA01_i5&#45;54_i7&#45;59_S1_L002_</text>
</g>
<!-- 2&#45;&gt;0 -->
<g id="edge2" class="edge">
<title>2&#45;&gt;0</title>
<path fill="none" stroke="grey" stroke-width="2" d="M1316.79,-71.85C1649.32,-54.33 2136.62,-28.64 2279.03,-21.13"/>
<polygon fill="grey" stroke="grey" stroke-width="2" points="2278.92,-24.49 2288.72,-20.46 2278.55,-17.5 2278.92,-24.49"/>
</g>
<!-- 3 -->
<g id="node4" class="node">
<title>3</title>
<path fill="none" stroke="#56c1d8" stroke-width="2" stroke-dasharray="5,2" d="M1965,-108C1965,-108 1346,-108 1346,-108 1340,-108 1334,-102 1334,-96 1334,-96 1334,-84 1334,-84 1334,-78 1340,-72 1346,-72 1346,-72 1965,-72 1965,-72 1971,-72 1977,-78 1977,-84 1977,-84 1977,-96 1977,-96 1977,-102 1971,-108 1965,-108"/>
<text text-anchor="middle" x="1655.5" y="-93.25" font-family="sans" font-size="10.00">bwa_map_prog</text>
<text text-anchor="middle" x="1655.5" y="-80.5" font-family="sans" font-size="10.00">sample: sync_FLEX&#45;SEQ_RAW_UGA_149001_P001_WA04_RAPiD&#45;Genomics_F165_UGA_149001_P001_WA04_i5&#45;54_i7&#45;7_S4_L002_</text>
</g>
<!-- 3&#45;&gt;0 -->
<g id="edge3" class="edge">
<title>3&#45;&gt;0</title>
<path fill="none" stroke="grey" stroke-width="2" d="M1826.07,-71.02C1978.5,-54.95 2190.95,-32.55 2278.9,-23.28"/>
<polygon fill="grey" stroke="grey" stroke-width="2" points="2279.09,-26.46 2288.67,-21.93 2278.36,-19.5 2279.09,-26.46"/>
</g>
<!-- 4 -->
<g id="node5" class="node">
<title>4</title>
<path fill="none" stroke="#56c1d8" stroke-width="2" stroke-dasharray="5,2" d="M2632,-108C2632,-108 2007,-108 2007,-108 2001,-108 1995,-102 1995,-96 1995,-96 1995,-84 1995,-84 1995,-78 2001,-72 2007,-72 2007,-72 2632,-72 2632,-72 2638,-72 2644,-78 2644,-84 2644,-84 2644,-96 2644,-96 2644,-102 2638,-108 2632,-108"/>
<text text-anchor="middle" x="2319.5" y="-93.25" font-family="sans" font-size="10.00">bwa_map_prog</text>
<text text-anchor="middle" x="2319.5" y="-80.5" font-family="sans" font-size="10.00">sample: sync_FLEX&#45;SEQ_RAW_UGA_149001_P001_WA02_RAPiD&#45;Genomics_F165_UGA_149001_P001_WA02_i5&#45;54_i7&#45;27_S2_L002_</text>
</g>
<!-- 4&#45;&gt;0 -->
<g id="edge4" class="edge">
<title>4&#45;&gt;0</title>
<path fill="none" stroke="grey" stroke-width="2" d="M2319.5,-71.34C2319.5,-64.75 2319.5,-57.08 2319.5,-49.67"/>
<polygon fill="grey" stroke="grey" stroke-width="2" points="2323,-49.9 2319.5,-39.9 2316,-49.9 2323,-49.9"/>
</g>
<!-- 5 -->
<g id="node6" class="node">
<title>5</title>
<path fill="none" stroke="#56c1d8" stroke-width="2" d="M3299,-108C3299,-108 2674,-108 2674,-108 2668,-108 2662,-102 2662,-96 2662,-96 2662,-84 2662,-84 2662,-78 2668,-72 2674,-72 2674,-72 3299,-72 3299,-72 3305,-72 3311,-78 3311,-84 3311,-84 3311,-96 3311,-96 3311,-102 3305,-108 3299,-108"/>
<text text-anchor="middle" x="2986.5" y="-93.25" font-family="sans" font-size="10.00">bwa_map_prog</text>
<text text-anchor="middle" x="2986.5" y="-80.5" font-family="sans" font-size="10.00">sample: sync_FLEX&#45;SEQ_RAW_UGA_149001_P001_WA05_RAPiD&#45;Genomics_F165_UGA_149001_P001_WA05_i5&#45;54_i7&#45;38_S5_L002_</text>
</g>
<!-- 5&#45;&gt;0 -->
<g id="edge5" class="edge">
<title>5&#45;&gt;0</title>
<path fill="none" stroke="grey" stroke-width="2" d="M2815.16,-71.02C2662.04,-54.95 2448.63,-32.55 2360.29,-23.28"/>
<polygon fill="grey" stroke="grey" stroke-width="2" points="2360.76,-19.5 2350.45,-21.93 2360.03,-26.46 2360.76,-19.5"/>
</g>
<!-- 6 -->
<g id="node7" class="node">
<title>6</title>
<path fill="none" stroke="#d85656" stroke-width="2" stroke-dasharray="5,2" d="M3462,-108C3462,-108 3341,-108 3341,-108 3335,-108 3329,-102 3329,-96 3329,-96 3329,-84 3329,-84 3329,-78 3335,-72 3341,-72 3341,-72 3462,-72 3462,-72 3468,-72 3474,-78 3474,-84 3474,-84 3474,-96 3474,-96 3474,-102 3468,-108 3462,-108"/>
<text text-anchor="middle" x="3401.5" y="-93.25" font-family="sans" font-size="10.00">bwa_map_parent</text>
<text text-anchor="middle" x="3401.5" y="-80.5" font-family="sans" font-size="10.00">parent_sample: mini_315_</text>
</g>
<!-- 6&#45;&gt;0 -->
<g id="edge6" class="edge">
<title>6&#45;&gt;0</title>
<path fill="none" stroke="grey" stroke-width="2" d="M3328.29,-73.11C3325.67,-72.71 3323.06,-72.33 3320.5,-72 2949.71,-23.57 2496.16,-19.1 2360,-18.91"/>
<polygon fill="grey" stroke="grey" stroke-width="2" points="2360.11,-15.41 2350.11,-18.91 2360.11,-22.41 2360.11,-15.41"/>
</g>
<!-- 7 -->
<g id="node8" class="node">
<title>7</title>
<path fill="none" stroke="#d85656" stroke-width="2" stroke-dasharray="5,2" d="M3625,-108C3625,-108 3504,-108 3504,-108 3498,-108 3492,-102 3492,-96 3492,-96 3492,-84 3492,-84 3492,-78 3498,-72 3504,-72 3504,-72 3625,-72 3625,-72 3631,-72 3637,-78 3637,-84 3637,-84 3637,-96 3637,-96 3637,-102 3631,-108 3625,-108"/>
<text text-anchor="middle" x="3564.5" y="-93.25" font-family="sans" font-size="10.00">bwa_map_parent</text>
<text text-anchor="middle" x="3564.5" y="-80.5" font-family="sans" font-size="10.00">parent_sample: mini_320_</text>
</g>
<!-- 7&#45;&gt;0 -->
<g id="edge7" class="edge">
<title>7&#45;&gt;0</title>
<path fill="none" stroke="grey" stroke-width="2" d="M3491.3,-73.08C3488.67,-72.69 3486.07,-72.33 3483.5,-72 3046.12,-16.51 2509.8,-17.09 2360.02,-18.49"/>
<polygon fill="grey" stroke="grey" stroke-width="2" points="2360.1,-15.02 2350.14,-18.62 2360.17,-22.02 2360.1,-15.02"/>
</g>
</g>
</svg>
