<?xml version="1.0" encoding="UTF-8" standalone="no"?>
<!DOCTYPE svg PUBLIC "-//W3C//DTD SVG 1.1//EN"
 "http://www.w3.org/Graphics/SVG/1.1/DTD/svg11.dtd">
<!-- Generated by graphviz version 8.1.0 (20230707.2238)
 -->
<!-- Title: snakemake_dag Pages: 1 -->
<svg width="1181pt" height="260pt"
 viewBox="0.00 0.00 1181.00 260.00" xmlns="http://www.w3.org/2000/svg" xmlns:xlink="http://www.w3.org/1999/xlink">
<g id="graph0" class="graph" transform="scale(1 1) rotate(0) translate(4 256)">
<title>snakemake_dag</title>
<polygon fill="white" stroke="none" points="-4,4 -4,-256 1177,-256 1177,4 -4,4"/>
<!-- 0 -->
<g id="node1" class="node">
<title>0</title>
<path fill="none" stroke="#d8ac56" stroke-width="2" d="M485.38,-36C485.38,-36 455.38,-36 455.38,-36 449.38,-36 443.38,-30 443.38,-24 443.38,-24 443.38,-12 443.38,-12 443.38,-6 449.38,0 455.38,0 455.38,0 485.38,0 485.38,0 491.38,0 497.38,-6 497.38,-12 497.38,-12 497.38,-24 497.38,-24 497.38,-30 491.38,-36 485.38,-36"/>
<text text-anchor="middle" x="470.38" y="-14.88" font-family="sans" font-size="10.00">all</text>
</g>
<!-- 1 -->
<g id="node2" class="node">
<title>1</title>
<path fill="none" stroke="#afd856" stroke-width="2" stroke-dasharray="5,2" d="M106.75,-108C106.75,-108 12,-108 12,-108 6,-108 0,-102 0,-96 0,-96 0,-84 0,-84 0,-78 6,-72 12,-72 12,-72 106.75,-72 106.75,-72 112.75,-72 118.75,-78 118.75,-84 118.75,-84 118.75,-96 118.75,-96 118.75,-102 112.75,-108 106.75,-108"/>
<text text-anchor="middle" x="59.38" y="-86.88" font-family="sans" font-size="10.00">markduplicates_prog</text>
</g>
<!-- 1&#45;&gt;0 -->
<g id="edge1" class="edge">
<title>1&#45;&gt;0</title>
<path fill="none" stroke="grey" stroke-width="2" d="M119.52,-73.85C122.51,-73.2 125.47,-72.58 128.38,-72 236.73,-50.3 365.91,-32.42 430.07,-24.08"/>
<polygon fill="grey" stroke="grey" stroke-width="2" points="430.28,-27.19 439.75,-22.44 429.38,-20.25 430.28,-27.19"/>
</g>
<!-- 2 -->
<g id="node3" class="node">
<title>2</title>
<path fill="none" stroke="#56a9d8" stroke-width="2" stroke-dasharray="5,2" d="M103.38,-180C103.38,-180 15.38,-180 15.38,-180 9.38,-180 3.37,-174 3.37,-168 3.37,-168 3.37,-156 3.37,-156 3.37,-150 9.37,-144 15.37,-144 15.37,-144 103.38,-144 103.38,-144 109.38,-144 115.38,-150 115.38,-156 115.38,-156 115.38,-168 115.38,-168 115.38,-174 109.38,-180 103.38,-180"/>
<text text-anchor="middle" x="59.38" y="-158.88" font-family="sans" font-size="10.00">samtools_sort_prog</text>
</g>
<!-- 2&#45;&gt;1 -->
<g id="edge8" class="edge">
<title>2&#45;&gt;1</title>
<path fill="none" stroke="grey" stroke-width="2" d="M59.38,-143.34C59.38,-136.75 59.38,-129.08 59.38,-121.67"/>
<polygon fill="grey" stroke="grey" stroke-width="2" points="62.88,-121.9 59.38,-111.9 55.88,-121.9 62.88,-121.9"/>
</g>
<!-- 3 -->
<g id="node4" class="node">
<title>3</title>
<path fill="none" stroke="#d85656" stroke-width="2" stroke-dasharray="5,2" d="M100.75,-252C100.75,-252 18,-252 18,-252 12,-252 6,-246 6,-240 6,-240 6,-228 6,-228 6,-222 12,-216 18,-216 18,-216 100.75,-216 100.75,-216 106.75,-216 112.75,-222 112.75,-228 112.75,-228 112.75,-240 112.75,-240 112.75,-246 106.75,-252 100.75,-252"/>
<text text-anchor="middle" x="59.38" y="-237.25" font-family="sans" font-size="10.00">bwa_map_prog</text>
<text text-anchor="middle" x="59.38" y="-224.5" font-family="sans" font-size="10.00">sample: 301&#45;1&#45;12_</text>
</g>
<!-- 3&#45;&gt;2 -->
<g id="edge9" class="edge">
<title>3&#45;&gt;2</title>
<path fill="none" stroke="grey" stroke-width="2" d="M59.38,-215.34C59.38,-208.75 59.38,-201.08 59.38,-193.67"/>
<polygon fill="grey" stroke="grey" stroke-width="2" points="62.88,-193.9 59.38,-183.9 55.88,-193.9 62.88,-193.9"/>
</g>
<!-- 4 -->
<g id="node5" class="node">
<title>4</title>
<path fill="none" stroke="#afd856" stroke-width="2" stroke-dasharray="5,2" d="M243.75,-108C243.75,-108 149,-108 149,-108 143,-108 137,-102 137,-96 137,-96 137,-84 137,-84 137,-78 143,-72 149,-72 149,-72 243.75,-72 243.75,-72 249.75,-72 255.75,-78 255.75,-84 255.75,-84 255.75,-96 255.75,-96 255.75,-102 249.75,-108 243.75,-108"/>
<text text-anchor="middle" x="196.38" y="-86.88" font-family="sans" font-size="10.00">markduplicates_prog</text>
</g>
<!-- 4&#45;&gt;0 -->
<g id="edge2" class="edge">
<title>4&#45;&gt;0</title>
<path fill="none" stroke="grey" stroke-width="2" d="M256.51,-73.64C309.24,-60.17 384.44,-40.96 430.18,-29.27"/>
<polygon fill="grey" stroke="grey" stroke-width="2" points="431.72,-31.98 440.54,-26.11 429.99,-25.19 431.72,-31.98"/>
</g>
<!-- 5 -->
<g id="node6" class="node">
<title>5</title>
<path fill="none" stroke="#56a9d8" stroke-width="2" stroke-dasharray="5,2" d="M240.38,-180C240.38,-180 152.38,-180 152.38,-180 146.38,-180 140.38,-174 140.38,-168 140.38,-168 140.38,-156 140.38,-156 140.38,-150 146.38,-144 152.38,-144 152.38,-144 240.38,-144 240.38,-144 246.38,-144 252.38,-150 252.38,-156 252.38,-156 252.38,-168 252.38,-168 252.38,-174 246.38,-180 240.38,-180"/>
<text text-anchor="middle" x="196.38" y="-158.88" font-family="sans" font-size="10.00">samtools_sort_prog</text>
</g>
<!-- 5&#45;&gt;4 -->
<g id="edge10" class="edge">
<title>5&#45;&gt;4</title>
<path fill="none" stroke="grey" stroke-width="2" d="M196.38,-143.34C196.38,-136.75 196.38,-129.08 196.38,-121.67"/>
<polygon fill="grey" stroke="grey" stroke-width="2" points="199.88,-121.9 196.38,-111.9 192.88,-121.9 199.88,-121.9"/>
</g>
<!-- 6 -->
<g id="node7" class="node">
<title>6</title>
<path fill="none" stroke="#d85656" stroke-width="2" stroke-dasharray="5,2" d="M237.75,-252C237.75,-252 155,-252 155,-252 149,-252 143,-246 143,-240 143,-240 143,-228 143,-228 143,-222 149,-216 155,-216 155,-216 237.75,-216 237.75,-216 243.75,-216 249.75,-222 249.75,-228 249.75,-228 249.75,-240 249.75,-240 249.75,-246 243.75,-252 237.75,-252"/>
<text text-anchor="middle" x="196.38" y="-237.25" font-family="sans" font-size="10.00">bwa_map_prog</text>
<text text-anchor="middle" x="196.38" y="-224.5" font-family="sans" font-size="10.00">sample: 306&#45;4&#45;12_</text>
</g>
<!-- 6&#45;&gt;5 -->
<g id="edge11" class="edge">
<title>6&#45;&gt;5</title>
<path fill="none" stroke="grey" stroke-width="2" d="M196.38,-215.34C196.38,-208.75 196.38,-201.08 196.38,-193.67"/>
<polygon fill="grey" stroke="grey" stroke-width="2" points="199.88,-193.9 196.38,-183.9 192.88,-193.9 199.88,-193.9"/>
</g>
<!-- 7 -->
<g id="node8" class="node">
<title>7</title>
<path fill="none" stroke="#afd856" stroke-width="2" stroke-dasharray="5,2" d="M380.75,-108C380.75,-108 286,-108 286,-108 280,-108 274,-102 274,-96 274,-96 274,-84 274,-84 274,-78 280,-72 286,-72 286,-72 380.75,-72 380.75,-72 386.75,-72 392.75,-78 392.75,-84 392.75,-84 392.75,-96 392.75,-96 392.75,-102 386.75,-108 380.75,-108"/>
<text text-anchor="middle" x="333.38" y="-86.88" font-family="sans" font-size="10.00">markduplicates_prog</text>
</g>
<!-- 7&#45;&gt;0 -->
<g id="edge3" class="edge">
<title>7&#45;&gt;0</title>
<path fill="none" stroke="grey" stroke-width="2" d="M368.3,-71.15C387.43,-61.38 411.2,-49.24 430.99,-39.13"/>
<polygon fill="grey" stroke="grey" stroke-width="2" points="433.1,-41.95 440.41,-34.29 429.91,-35.72 433.1,-41.95"/>
</g>
<!-- 8 -->
<g id="node9" class="node">
<title>8</title>
<path fill="none" stroke="#56a9d8" stroke-width="2" stroke-dasharray="5,2" d="M377.38,-180C377.38,-180 289.38,-180 289.38,-180 283.38,-180 277.38,-174 277.38,-168 277.38,-168 277.38,-156 277.38,-156 277.38,-150 283.38,-144 289.38,-144 289.38,-144 377.38,-144 377.38,-144 383.38,-144 389.38,-150 389.38,-156 389.38,-156 389.38,-168 389.38,-168 389.38,-174 383.38,-180 377.38,-180"/>
<text text-anchor="middle" x="333.38" y="-158.88" font-family="sans" font-size="10.00">samtools_sort_prog</text>
</g>
<!-- 8&#45;&gt;7 -->
<g id="edge12" class="edge">
<title>8&#45;&gt;7</title>
<path fill="none" stroke="grey" stroke-width="2" d="M333.38,-143.34C333.38,-136.75 333.38,-129.08 333.38,-121.67"/>
<polygon fill="grey" stroke="grey" stroke-width="2" points="336.88,-121.9 333.38,-111.9 329.88,-121.9 336.88,-121.9"/>
</g>
<!-- 9 -->
<g id="node10" class="node">
<title>9</title>
<path fill="none" stroke="#d85656" stroke-width="2" stroke-dasharray="5,2" d="M374.75,-252C374.75,-252 292,-252 292,-252 286,-252 280,-246 280,-240 280,-240 280,-228 280,-228 280,-222 286,-216 292,-216 292,-216 374.75,-216 374.75,-216 380.75,-216 386.75,-222 386.75,-228 386.75,-228 386.75,-240 386.75,-240 386.75,-246 380.75,-252 374.75,-252"/>
<text text-anchor="middle" x="333.38" y="-237.25" font-family="sans" font-size="10.00">bwa_map_prog</text>
<text text-anchor="middle" x="333.38" y="-224.5" font-family="sans" font-size="10.00">sample: 301&#45;5&#45;48_</text>
</g>
<!-- 9&#45;&gt;8 -->
<g id="edge13" class="edge">
<title>9&#45;&gt;8</title>
<path fill="none" stroke="grey" stroke-width="2" d="M333.38,-215.34C333.38,-208.75 333.38,-201.08 333.38,-193.67"/>
<polygon fill="grey" stroke="grey" stroke-width="2" points="336.88,-193.9 333.38,-183.9 329.88,-193.9 336.88,-193.9"/>
</g>
<!-- 10 -->
<g id="node11" class="node">
<title>10</title>
<path fill="none" stroke="#afd856" stroke-width="2" stroke-dasharray="5,2" d="M517.75,-108C517.75,-108 423,-108 423,-108 417,-108 411,-102 411,-96 411,-96 411,-84 411,-84 411,-78 417,-72 423,-72 423,-72 517.75,-72 517.75,-72 523.75,-72 529.75,-78 529.75,-84 529.75,-84 529.75,-96 529.75,-96 529.75,-102 523.75,-108 517.75,-108"/>
<text text-anchor="middle" x="470.38" y="-86.88" font-family="sans" font-size="10.00">markduplicates_prog</text>
</g>
<!-- 10&#45;&gt;0 -->
<g id="edge4" class="edge">
<title>10&#45;&gt;0</title>
<path fill="none" stroke="grey" stroke-width="2" d="M470.38,-71.34C470.38,-64.75 470.38,-57.08 470.38,-49.67"/>
<polygon fill="grey" stroke="grey" stroke-width="2" points="473.88,-49.9 470.38,-39.9 466.88,-49.9 473.88,-49.9"/>
</g>
<!-- 11 -->
<g id="node12" class="node">
<title>11</title>
<path fill="none" stroke="#56a9d8" stroke-width="2" stroke-dasharray="5,2" d="M514.38,-180C514.38,-180 426.38,-180 426.38,-180 420.38,-180 414.38,-174 414.38,-168 414.38,-168 414.38,-156 414.38,-156 414.38,-150 420.38,-144 426.38,-144 426.38,-144 514.38,-144 514.38,-144 520.38,-144 526.38,-150 526.38,-156 526.38,-156 526.38,-168 526.38,-168 526.38,-174 520.38,-180 514.38,-180"/>
<text text-anchor="middle" x="470.38" y="-158.88" font-family="sans" font-size="10.00">samtools_sort_prog</text>
</g>
<!-- 11&#45;&gt;10 -->
<g id="edge14" class="edge">
<title>11&#45;&gt;10</title>
<path fill="none" stroke="grey" stroke-width="2" d="M470.38,-143.34C470.38,-136.75 470.38,-129.08 470.38,-121.67"/>
<polygon fill="grey" stroke="grey" stroke-width="2" points="473.88,-121.9 470.38,-111.9 466.88,-121.9 473.88,-121.9"/>
</g>
<!-- 12 -->
<g id="node13" class="node">
<title>12</title>
<path fill="none" stroke="#d85656" stroke-width="2" stroke-dasharray="5,2" d="M511.75,-252C511.75,-252 429,-252 429,-252 423,-252 417,-246 417,-240 417,-240 417,-228 417,-228 417,-222 423,-216 429,-216 429,-216 511.75,-216 511.75,-216 517.75,-216 523.75,-222 523.75,-228 523.75,-228 523.75,-240 523.75,-240 523.75,-246 517.75,-252 511.75,-252"/>
<text text-anchor="middle" x="470.38" y="-237.25" font-family="sans" font-size="10.00">bwa_map_prog</text>
<text text-anchor="middle" x="470.38" y="-224.5" font-family="sans" font-size="10.00">sample: 314&#45;3&#45;48_</text>
</g>
<!-- 12&#45;&gt;11 -->
<g id="edge15" class="edge">
<title>12&#45;&gt;11</title>
<path fill="none" stroke="grey" stroke-width="2" d="M470.38,-215.34C470.38,-208.75 470.38,-201.08 470.38,-193.67"/>
<polygon fill="grey" stroke="grey" stroke-width="2" points="473.88,-193.9 470.38,-183.9 466.88,-193.9 473.88,-193.9"/>
</g>
<!-- 13 -->
<g id="node14" class="node">
<title>13</title>
<path fill="none" stroke="#afd856" stroke-width="2" d="M654.75,-108C654.75,-108 560,-108 560,-108 554,-108 548,-102 548,-96 548,-96 548,-84 548,-84 548,-78 554,-72 560,-72 560,-72 654.75,-72 654.75,-72 660.75,-72 666.75,-78 666.75,-84 666.75,-84 666.75,-96 666.75,-96 666.75,-102 660.75,-108 654.75,-108"/>
<text text-anchor="middle" x="607.38" y="-86.88" font-family="sans" font-size="10.00">markduplicates_prog</text>
</g>
<!-- 13&#45;&gt;0 -->
<g id="edge5" class="edge">
<title>13&#45;&gt;0</title>
<path fill="none" stroke="grey" stroke-width="2" d="M572.45,-71.15C553.32,-61.38 529.55,-49.24 509.76,-39.13"/>
<polygon fill="grey" stroke="grey" stroke-width="2" points="510.84,-35.72 500.34,-34.29 507.65,-41.95 510.84,-35.72"/>
</g>
<!-- 14 -->
<g id="node15" class="node">
<title>14</title>
<path fill="none" stroke="#56a9d8" stroke-width="2" d="M651.38,-180C651.38,-180 563.38,-180 563.38,-180 557.38,-180 551.38,-174 551.38,-168 551.38,-168 551.38,-156 551.38,-156 551.38,-150 557.38,-144 563.38,-144 563.38,-144 651.38,-144 651.38,-144 657.38,-144 663.38,-150 663.38,-156 663.38,-156 663.38,-168 663.38,-168 663.38,-174 657.38,-180 651.38,-180"/>
<text text-anchor="middle" x="607.38" y="-158.88" font-family="sans" font-size="10.00">samtools_sort_prog</text>
</g>
<!-- 14&#45;&gt;13 -->
<g id="edge16" class="edge">
<title>14&#45;&gt;13</title>
<path fill="none" stroke="grey" stroke-width="2" d="M607.38,-143.34C607.38,-136.75 607.38,-129.08 607.38,-121.67"/>
<polygon fill="grey" stroke="grey" stroke-width="2" points="610.88,-121.9 607.38,-111.9 603.88,-121.9 610.88,-121.9"/>
</g>
<!-- 15 -->
<g id="node16" class="node">
<title>15</title>
<path fill="none" stroke="#d85656" stroke-width="2" d="M648.75,-252C648.75,-252 566,-252 566,-252 560,-252 554,-246 554,-240 554,-240 554,-228 554,-228 554,-222 560,-216 566,-216 566,-216 648.75,-216 648.75,-216 654.75,-216 660.75,-222 660.75,-228 660.75,-228 660.75,-240 660.75,-240 660.75,-246 654.75,-252 648.75,-252"/>
<text text-anchor="middle" x="607.38" y="-237.25" font-family="sans" font-size="10.00">bwa_map_prog</text>
<text text-anchor="middle" x="607.38" y="-224.5" font-family="sans" font-size="10.00">sample: 312&#45;5&#45;25_</text>
</g>
<!-- 15&#45;&gt;14 -->
<g id="edge17" class="edge">
<title>15&#45;&gt;14</title>
<path fill="none" stroke="grey" stroke-width="2" d="M607.38,-215.34C607.38,-208.75 607.38,-201.08 607.38,-193.67"/>
<polygon fill="grey" stroke="grey" stroke-width="2" points="610.88,-193.9 607.38,-183.9 603.88,-193.9 610.88,-193.9"/>
</g>
<!-- 16 -->
<g id="node17" class="node">
<title>16</title>
<path fill="none" stroke="#59d856" stroke-width="2" stroke-dasharray="5,2" d="M1050.12,-108C1050.12,-108 696.62,-108 696.62,-108 690.62,-108 684.62,-102 684.62,-96 684.62,-96 684.62,-84 684.62,-84 684.62,-78 690.62,-72 696.62,-72 696.62,-72 1050.12,-72 1050.12,-72 1056.12,-72 1062.12,-78 1062.12,-84 1062.12,-84 1062.12,-96 1062.12,-96 1062.12,-102 1056.12,-108 1050.12,-108"/>
<text text-anchor="middle" x="873.38" y="-93.25" font-family="sans" font-size="10.00">index_genome</text>
<text text-anchor="middle" x="873.38" y="-80.5" font-family="sans" font-size="10.00">input: ../Data/Practice_Data/Genome/small_subset_tall_fescue_genome.fa</text>
</g>
<!-- 16&#45;&gt;0 -->
<g id="edge6" class="edge">
<title>16&#45;&gt;0</title>
<path fill="none" stroke="grey" stroke-width="2" d="M769.85,-71.02C685.51,-56.37 570.9,-36.46 510.86,-26.03"/>
<polygon fill="grey" stroke="grey" stroke-width="2" points="510.67,-22.1 500.21,-23.84 509.47,-29 510.67,-22.1"/>
</g>
<!-- 17 -->
<g id="node18" class="node">
<title>17</title>
<path fill="none" stroke="#56d8a9" stroke-width="2" d="M1161,-108C1161,-108 1091.75,-108 1091.75,-108 1085.75,-108 1079.75,-102 1079.75,-96 1079.75,-96 1079.75,-84 1079.75,-84 1079.75,-78 1085.75,-72 1091.75,-72 1091.75,-72 1161,-72 1161,-72 1167,-72 1173,-78 1173,-84 1173,-84 1173,-96 1173,-96 1173,-102 1167,-108 1161,-108"/>
<text text-anchor="middle" x="1126.38" y="-86.88" font-family="sans" font-size="10.00">samtools_index</text>
</g>
<!-- 17&#45;&gt;0 -->
<g id="edge7" class="edge">
<title>17&#45;&gt;0</title>
<path fill="none" stroke="grey" stroke-width="2" d="M1078.84,-73.63C1076.32,-73.03 1073.83,-72.48 1071.38,-72 863.48,-31.18 608.91,-21.78 511.21,-19.63"/>
<polygon fill="grey" stroke="grey" stroke-width="2" points="511.29,-16.07 501.22,-19.37 511.15,-23.07 511.29,-16.07"/>
</g>
</g>
</svg>
