<?xml version="1.0" encoding="UTF-8" standalone="no"?>
<!DOCTYPE svg PUBLIC "-//W3C//DTD SVG 1.1//EN"
 "http://www.w3.org/Graphics/SVG/1.1/DTD/svg11.dtd">
<!-- Generated by graphviz version 8.1.0 (20230707.2238)
 -->
<!-- Title: snakemake_dag Pages: 1 -->
<svg width="316pt" height="116pt"
 viewBox="0.00 0.00 316.00 116.00" xmlns="http://www.w3.org/2000/svg" xmlns:xlink="http://www.w3.org/1999/xlink">
<g id="graph0" class="graph" transform="scale(1 1) rotate(0) translate(4 112)">
<title>snakemake_dag</title>
<polygon fill="white" stroke="none" points="-4,4 -4,-112 312,-112 312,4 -4,4"/>
<!-- 0 -->
<g id="node1" class="node">
<title>0</title>
<path fill="none" stroke="#59d856" stroke-width="2" stroke-dasharray="5,2" d="M168.5,-36C168.5,-36 138.5,-36 138.5,-36 132.5,-36 126.5,-30 126.5,-24 126.5,-24 126.5,-12 126.5,-12 126.5,-6 132.5,0 138.5,0 138.5,0 168.5,0 168.5,0 174.5,0 180.5,-6 180.5,-12 180.5,-12 180.5,-24 180.5,-24 180.5,-30 174.5,-36 168.5,-36"/>
<text text-anchor="middle" x="153.5" y="-14.88" font-family="sans" font-size="10.00">all</text>
</g>
<!-- 1 -->
<g id="node2" class="node">
<title>1</title>
<path fill="none" stroke="#d85656" stroke-width="2" stroke-dasharray="5,2" d="M133,-108C133,-108 12,-108 12,-108 6,-108 0,-102 0,-96 0,-96 0,-84 0,-84 0,-78 6,-72 12,-72 12,-72 133,-72 133,-72 139,-72 145,-78 145,-84 145,-84 145,-96 145,-96 145,-102 139,-108 133,-108"/>
<text text-anchor="middle" x="72.5" y="-93.25" font-family="sans" font-size="10.00">bwa_map_parent</text>
<text text-anchor="middle" x="72.5" y="-80.5" font-family="sans" font-size="10.00">parent_sample: mini_315_</text>
</g>
<!-- 1&#45;&gt;0 -->
<g id="edge1" class="edge">
<title>1&#45;&gt;0</title>
<path fill="none" stroke="grey" stroke-width="2" d="M92.94,-71.34C102.08,-63.44 113.04,-53.96 123.11,-45.26"/>
<polygon fill="grey" stroke="grey" stroke-width="2" points="125.51,-47.09 130.79,-37.9 120.93,-41.79 125.51,-47.09"/>
</g>
<!-- 2 -->
<g id="node3" class="node">
<title>2</title>
<path fill="none" stroke="#d85656" stroke-width="2" stroke-dasharray="5,2" d="M296,-108C296,-108 175,-108 175,-108 169,-108 163,-102 163,-96 163,-96 163,-84 163,-84 163,-78 169,-72 175,-72 175,-72 296,-72 296,-72 302,-72 308,-78 308,-84 308,-84 308,-96 308,-96 308,-102 302,-108 296,-108"/>
<text text-anchor="middle" x="235.5" y="-93.25" font-family="sans" font-size="10.00">bwa_map_parent</text>
<text text-anchor="middle" x="235.5" y="-80.5" font-family="sans" font-size="10.00">parent_sample: mini_320_</text>
</g>
<!-- 2&#45;&gt;0 -->
<g id="edge2" class="edge">
<title>2&#45;&gt;0</title>
<path fill="none" stroke="grey" stroke-width="2" d="M214.81,-71.34C205.56,-63.44 194.46,-53.96 184.26,-45.26"/>
<polygon fill="grey" stroke="grey" stroke-width="2" points="186.35,-41.73 176.47,-37.9 181.8,-47.06 186.35,-41.73"/>
</g>
</g>
</svg>
