<?xml version="1.0" encoding="UTF-8" standalone="no"?>
<!DOCTYPE svg PUBLIC "-//W3C//DTD SVG 1.1//EN"
 "http://www.w3.org/Graphics/SVG/1.1/DTD/svg11.dtd">
<!-- Generated by graphviz version 2.40.1 (0)
 -->
<!-- Title: snakemake_dag Pages: 1 -->
<svg width="2574pt" height="260pt"
 viewBox="0.00 0.00 2574.00 260.00" xmlns="http://www.w3.org/2000/svg" xmlns:xlink="http://www.w3.org/1999/xlink">
<g id="graph0" class="graph" transform="scale(1 1) rotate(0) translate(4 256)">
<title>snakemake_dag</title>
<polygon fill="#ffffff" stroke="transparent" points="-4,4 -4,-256 2570,-256 2570,4 -4,4"/>
<!-- 0 -->
<g id="node1" class="node">
<title>0</title>
<path fill="none" stroke="#d85656" stroke-width="2" d="M1298,-36C1298,-36 1268,-36 1268,-36 1262,-36 1256,-30 1256,-24 1256,-24 1256,-12 1256,-12 1256,-6 1262,0 1268,0 1268,0 1298,0 1298,0 1304,0 1310,-6 1310,-12 1310,-12 1310,-24 1310,-24 1310,-30 1304,-36 1298,-36"/>
<text text-anchor="middle" x="1283" y="-15.5" font-family="sans" font-size="10.00" fill="#000000">all</text>
</g>
<!-- 1 -->
<g id="node2" class="node">
<title>1</title>
<path fill="none" stroke="#d8ac56" stroke-width="2" d="M122,-108C122,-108 12,-108 12,-108 6,-108 0,-102 0,-96 0,-96 0,-84 0,-84 0,-78 6,-72 12,-72 12,-72 122,-72 122,-72 128,-72 134,-78 134,-84 134,-84 134,-96 134,-96 134,-102 128,-108 122,-108"/>
<text text-anchor="middle" x="67" y="-87.5" font-family="sans" font-size="10.00" fill="#000000">markduplicates_parents</text>
</g>
<!-- 1&#45;&gt;0 -->
<g id="edge1" class="edge">
<title>1&#45;&gt;0</title>
<path fill="none" stroke="#c0c0c0" stroke-width="2" d="M134.0085,-73.4189C137.0386,-72.8936 140.0461,-72.4161 143,-72 363.2839,-40.9695 1074.2197,-22.8289 1245.5818,-18.8398"/>
<polygon fill="#c0c0c0" stroke="#c0c0c0" stroke-width="2" points="1245.7098,-22.3379 1255.6263,-18.6079 1245.5481,-15.3398 1245.7098,-22.3379"/>
</g>
<!-- 2 -->
<g id="node3" class="node">
<title>2</title>
<path fill="none" stroke="#afd856" stroke-width="2" stroke-dasharray="5,2" d="M116,-180C116,-180 18,-180 18,-180 12,-180 6,-174 6,-168 6,-168 6,-156 6,-156 6,-150 12,-144 18,-144 18,-144 116,-144 116,-144 122,-144 128,-150 128,-156 128,-156 128,-168 128,-168 128,-174 122,-180 116,-180"/>
<text text-anchor="middle" x="67" y="-159.5" font-family="sans" font-size="10.00" fill="#000000">samtools_sort_parent</text>
</g>
<!-- 2&#45;&gt;1 -->
<g id="edge18" class="edge">
<title>2&#45;&gt;1</title>
<path fill="none" stroke="#c0c0c0" stroke-width="2" d="M67,-143.8314C67,-136.131 67,-126.9743 67,-118.4166"/>
<polygon fill="#c0c0c0" stroke="#c0c0c0" stroke-width="2" points="70.5001,-118.4132 67,-108.4133 63.5001,-118.4133 70.5001,-118.4132"/>
</g>
<!-- 3 -->
<g id="node4" class="node">
<title>3</title>
<path fill="none" stroke="#56a9d8" stroke-width="2" stroke-dasharray="5,2" d="M114.5,-252C114.5,-252 19.5,-252 19.5,-252 13.5,-252 7.5,-246 7.5,-240 7.5,-240 7.5,-228 7.5,-228 7.5,-222 13.5,-216 19.5,-216 19.5,-216 114.5,-216 114.5,-216 120.5,-216 126.5,-222 126.5,-228 126.5,-228 126.5,-240 126.5,-240 126.5,-246 120.5,-252 114.5,-252"/>
<text text-anchor="middle" x="67" y="-237" font-family="sans" font-size="10.00" fill="#000000">bwa_map_parent</text>
<text text-anchor="middle" x="67" y="-226" font-family="sans" font-size="10.00" fill="#000000">parent_sample: 303_</text>
</g>
<!-- 3&#45;&gt;2 -->
<g id="edge19" class="edge">
<title>3&#45;&gt;2</title>
<path fill="none" stroke="#c0c0c0" stroke-width="2" d="M67,-215.8314C67,-208.131 67,-198.9743 67,-190.4166"/>
<polygon fill="#c0c0c0" stroke="#c0c0c0" stroke-width="2" points="70.5001,-190.4132 67,-180.4133 63.5001,-190.4133 70.5001,-190.4132"/>
</g>
<!-- 4 -->
<g id="node5" class="node">
<title>4</title>
<path fill="none" stroke="#d8ac56" stroke-width="2" d="M274,-108C274,-108 164,-108 164,-108 158,-108 152,-102 152,-96 152,-96 152,-84 152,-84 152,-78 158,-72 164,-72 164,-72 274,-72 274,-72 280,-72 286,-78 286,-84 286,-84 286,-96 286,-96 286,-102 280,-108 274,-108"/>
<text text-anchor="middle" x="219" y="-87.5" font-family="sans" font-size="10.00" fill="#000000">markduplicates_parents</text>
</g>
<!-- 4&#45;&gt;0 -->
<g id="edge2" class="edge">
<title>4&#45;&gt;0</title>
<path fill="none" stroke="#c0c0c0" stroke-width="2" d="M286.0124,-73.4458C289.0414,-72.9132 292.0476,-72.4268 295,-72 483.8418,-44.6984 1088.912,-24.117 1245.6423,-19.151"/>
<polygon fill="#c0c0c0" stroke="#c0c0c0" stroke-width="2" points="1245.8404,-22.6465 1255.7253,-18.8335 1245.62,-15.65 1245.8404,-22.6465"/>
</g>
<!-- 5 -->
<g id="node6" class="node">
<title>5</title>
<path fill="none" stroke="#afd856" stroke-width="2" stroke-dasharray="5,2" d="M268,-180C268,-180 170,-180 170,-180 164,-180 158,-174 158,-168 158,-168 158,-156 158,-156 158,-150 164,-144 170,-144 170,-144 268,-144 268,-144 274,-144 280,-150 280,-156 280,-156 280,-168 280,-168 280,-174 274,-180 268,-180"/>
<text text-anchor="middle" x="219" y="-159.5" font-family="sans" font-size="10.00" fill="#000000">samtools_sort_parent</text>
</g>
<!-- 5&#45;&gt;4 -->
<g id="edge20" class="edge">
<title>5&#45;&gt;4</title>
<path fill="none" stroke="#c0c0c0" stroke-width="2" d="M219,-143.8314C219,-136.131 219,-126.9743 219,-118.4166"/>
<polygon fill="#c0c0c0" stroke="#c0c0c0" stroke-width="2" points="222.5001,-118.4132 219,-108.4133 215.5001,-118.4133 222.5001,-118.4132"/>
</g>
<!-- 6 -->
<g id="node7" class="node">
<title>6</title>
<path fill="none" stroke="#56a9d8" stroke-width="2" stroke-dasharray="5,2" d="M266.5,-252C266.5,-252 171.5,-252 171.5,-252 165.5,-252 159.5,-246 159.5,-240 159.5,-240 159.5,-228 159.5,-228 159.5,-222 165.5,-216 171.5,-216 171.5,-216 266.5,-216 266.5,-216 272.5,-216 278.5,-222 278.5,-228 278.5,-228 278.5,-240 278.5,-240 278.5,-246 272.5,-252 266.5,-252"/>
<text text-anchor="middle" x="219" y="-237" font-family="sans" font-size="10.00" fill="#000000">bwa_map_parent</text>
<text text-anchor="middle" x="219" y="-226" font-family="sans" font-size="10.00" fill="#000000">parent_sample: 314_</text>
</g>
<!-- 6&#45;&gt;5 -->
<g id="edge21" class="edge">
<title>6&#45;&gt;5</title>
<path fill="none" stroke="#c0c0c0" stroke-width="2" d="M219,-215.8314C219,-208.131 219,-198.9743 219,-190.4166"/>
<polygon fill="#c0c0c0" stroke="#c0c0c0" stroke-width="2" points="222.5001,-190.4132 219,-180.4133 215.5001,-190.4133 222.5001,-190.4132"/>
</g>
<!-- 7 -->
<g id="node8" class="node">
<title>7</title>
<path fill="none" stroke="#d8ac56" stroke-width="2" d="M426,-108C426,-108 316,-108 316,-108 310,-108 304,-102 304,-96 304,-96 304,-84 304,-84 304,-78 310,-72 316,-72 316,-72 426,-72 426,-72 432,-72 438,-78 438,-84 438,-84 438,-96 438,-96 438,-102 432,-108 426,-108"/>
<text text-anchor="middle" x="371" y="-87.5" font-family="sans" font-size="10.00" fill="#000000">markduplicates_parents</text>
</g>
<!-- 7&#45;&gt;0 -->
<g id="edge3" class="edge">
<title>7&#45;&gt;0</title>
<path fill="none" stroke="#c0c0c0" stroke-width="2" d="M438.0178,-73.4825C441.0453,-72.94 444.0498,-72.4415 447,-72 604.536,-48.4275 1104.5343,-25.6598 1245.6122,-19.5774"/>
<polygon fill="#c0c0c0" stroke="#c0c0c0" stroke-width="2" points="1246.0543,-23.0618 1255.8951,-19.1363 1245.7543,-16.0682 1246.0543,-23.0618"/>
</g>
<!-- 8 -->
<g id="node9" class="node">
<title>8</title>
<path fill="none" stroke="#afd856" stroke-width="2" stroke-dasharray="5,2" d="M420,-180C420,-180 322,-180 322,-180 316,-180 310,-174 310,-168 310,-168 310,-156 310,-156 310,-150 316,-144 322,-144 322,-144 420,-144 420,-144 426,-144 432,-150 432,-156 432,-156 432,-168 432,-168 432,-174 426,-180 420,-180"/>
<text text-anchor="middle" x="371" y="-159.5" font-family="sans" font-size="10.00" fill="#000000">samtools_sort_parent</text>
</g>
<!-- 8&#45;&gt;7 -->
<g id="edge22" class="edge">
<title>8&#45;&gt;7</title>
<path fill="none" stroke="#c0c0c0" stroke-width="2" d="M371,-143.8314C371,-136.131 371,-126.9743 371,-118.4166"/>
<polygon fill="#c0c0c0" stroke="#c0c0c0" stroke-width="2" points="374.5001,-118.4132 371,-108.4133 367.5001,-118.4133 374.5001,-118.4132"/>
</g>
<!-- 9 -->
<g id="node10" class="node">
<title>9</title>
<path fill="none" stroke="#56a9d8" stroke-width="2" stroke-dasharray="5,2" d="M418.5,-252C418.5,-252 323.5,-252 323.5,-252 317.5,-252 311.5,-246 311.5,-240 311.5,-240 311.5,-228 311.5,-228 311.5,-222 317.5,-216 323.5,-216 323.5,-216 418.5,-216 418.5,-216 424.5,-216 430.5,-222 430.5,-228 430.5,-228 430.5,-240 430.5,-240 430.5,-246 424.5,-252 418.5,-252"/>
<text text-anchor="middle" x="371" y="-237" font-family="sans" font-size="10.00" fill="#000000">bwa_map_parent</text>
<text text-anchor="middle" x="371" y="-226" font-family="sans" font-size="10.00" fill="#000000">parent_sample: 306_</text>
</g>
<!-- 9&#45;&gt;8 -->
<g id="edge23" class="edge">
<title>9&#45;&gt;8</title>
<path fill="none" stroke="#c0c0c0" stroke-width="2" d="M371,-215.8314C371,-208.131 371,-198.9743 371,-190.4166"/>
<polygon fill="#c0c0c0" stroke="#c0c0c0" stroke-width="2" points="374.5001,-190.4132 371,-180.4133 367.5001,-190.4133 374.5001,-190.4132"/>
</g>
<!-- 10 -->
<g id="node11" class="node">
<title>10</title>
<path fill="none" stroke="#d8ac56" stroke-width="2" d="M578,-108C578,-108 468,-108 468,-108 462,-108 456,-102 456,-96 456,-96 456,-84 456,-84 456,-78 462,-72 468,-72 468,-72 578,-72 578,-72 584,-72 590,-78 590,-84 590,-84 590,-96 590,-96 590,-102 584,-108 578,-108"/>
<text text-anchor="middle" x="523" y="-87.5" font-family="sans" font-size="10.00" fill="#000000">markduplicates_parents</text>
</g>
<!-- 10&#45;&gt;0 -->
<g id="edge4" class="edge">
<title>10&#45;&gt;0</title>
<path fill="none" stroke="#c0c0c0" stroke-width="2" d="M590.0259,-73.5352C593.0512,-72.9785 596.053,-72.4625 599,-72 843.6463,-33.6051 1142.0289,-21.9581 1245.5329,-18.9365"/>
<polygon fill="#c0c0c0" stroke="#c0c0c0" stroke-width="2" points="1245.8812,-22.4282 1255.7785,-18.6473 1245.6836,-15.431 1245.8812,-22.4282"/>
</g>
<!-- 11 -->
<g id="node12" class="node">
<title>11</title>
<path fill="none" stroke="#afd856" stroke-width="2" stroke-dasharray="5,2" d="M572,-180C572,-180 474,-180 474,-180 468,-180 462,-174 462,-168 462,-168 462,-156 462,-156 462,-150 468,-144 474,-144 474,-144 572,-144 572,-144 578,-144 584,-150 584,-156 584,-156 584,-168 584,-168 584,-174 578,-180 572,-180"/>
<text text-anchor="middle" x="523" y="-159.5" font-family="sans" font-size="10.00" fill="#000000">samtools_sort_parent</text>
</g>
<!-- 11&#45;&gt;10 -->
<g id="edge24" class="edge">
<title>11&#45;&gt;10</title>
<path fill="none" stroke="#c0c0c0" stroke-width="2" d="M523,-143.8314C523,-136.131 523,-126.9743 523,-118.4166"/>
<polygon fill="#c0c0c0" stroke="#c0c0c0" stroke-width="2" points="526.5001,-118.4132 523,-108.4133 519.5001,-118.4133 526.5001,-118.4132"/>
</g>
<!-- 12 -->
<g id="node13" class="node">
<title>12</title>
<path fill="none" stroke="#56a9d8" stroke-width="2" stroke-dasharray="5,2" d="M570.5,-252C570.5,-252 475.5,-252 475.5,-252 469.5,-252 463.5,-246 463.5,-240 463.5,-240 463.5,-228 463.5,-228 463.5,-222 469.5,-216 475.5,-216 475.5,-216 570.5,-216 570.5,-216 576.5,-216 582.5,-222 582.5,-228 582.5,-228 582.5,-240 582.5,-240 582.5,-246 576.5,-252 570.5,-252"/>
<text text-anchor="middle" x="523" y="-237" font-family="sans" font-size="10.00" fill="#000000">bwa_map_parent</text>
<text text-anchor="middle" x="523" y="-226" font-family="sans" font-size="10.00" fill="#000000">parent_sample: 307_</text>
</g>
<!-- 12&#45;&gt;11 -->
<g id="edge25" class="edge">
<title>12&#45;&gt;11</title>
<path fill="none" stroke="#c0c0c0" stroke-width="2" d="M523,-215.8314C523,-208.131 523,-198.9743 523,-190.4166"/>
<polygon fill="#c0c0c0" stroke="#c0c0c0" stroke-width="2" points="526.5001,-190.4132 523,-180.4133 519.5001,-190.4133 526.5001,-190.4132"/>
</g>
<!-- 13 -->
<g id="node14" class="node">
<title>13</title>
<path fill="none" stroke="#d8ac56" stroke-width="2" d="M730,-108C730,-108 620,-108 620,-108 614,-108 608,-102 608,-96 608,-96 608,-84 608,-84 608,-78 614,-72 620,-72 620,-72 730,-72 730,-72 736,-72 742,-78 742,-84 742,-84 742,-96 742,-96 742,-102 736,-108 730,-108"/>
<text text-anchor="middle" x="675" y="-87.5" font-family="sans" font-size="10.00" fill="#000000">markduplicates_parents</text>
</g>
<!-- 13&#45;&gt;0 -->
<g id="edge5" class="edge">
<title>13&#45;&gt;0</title>
<path fill="none" stroke="#c0c0c0" stroke-width="2" d="M742.0393,-73.6178C745.061,-73.0387 748.0583,-72.4954 751,-72 935.3302,-40.9545 1158.809,-25.3394 1245.8211,-20.0875"/>
<polygon fill="#c0c0c0" stroke="#c0c0c0" stroke-width="2" points="1246.2088,-23.5707 1255.9837,-19.484 1245.7938,-16.583 1246.2088,-23.5707"/>
</g>
<!-- 14 -->
<g id="node15" class="node">
<title>14</title>
<path fill="none" stroke="#afd856" stroke-width="2" stroke-dasharray="5,2" d="M724,-180C724,-180 626,-180 626,-180 620,-180 614,-174 614,-168 614,-168 614,-156 614,-156 614,-150 620,-144 626,-144 626,-144 724,-144 724,-144 730,-144 736,-150 736,-156 736,-156 736,-168 736,-168 736,-174 730,-180 724,-180"/>
<text text-anchor="middle" x="675" y="-159.5" font-family="sans" font-size="10.00" fill="#000000">samtools_sort_parent</text>
</g>
<!-- 14&#45;&gt;13 -->
<g id="edge26" class="edge">
<title>14&#45;&gt;13</title>
<path fill="none" stroke="#c0c0c0" stroke-width="2" d="M675,-143.8314C675,-136.131 675,-126.9743 675,-118.4166"/>
<polygon fill="#c0c0c0" stroke="#c0c0c0" stroke-width="2" points="678.5001,-118.4132 675,-108.4133 671.5001,-118.4133 678.5001,-118.4132"/>
</g>
<!-- 15 -->
<g id="node16" class="node">
<title>15</title>
<path fill="none" stroke="#56a9d8" stroke-width="2" stroke-dasharray="5,2" d="M722.5,-252C722.5,-252 627.5,-252 627.5,-252 621.5,-252 615.5,-246 615.5,-240 615.5,-240 615.5,-228 615.5,-228 615.5,-222 621.5,-216 627.5,-216 627.5,-216 722.5,-216 722.5,-216 728.5,-216 734.5,-222 734.5,-228 734.5,-228 734.5,-240 734.5,-240 734.5,-246 728.5,-252 722.5,-252"/>
<text text-anchor="middle" x="675" y="-237" font-family="sans" font-size="10.00" fill="#000000">bwa_map_parent</text>
<text text-anchor="middle" x="675" y="-226" font-family="sans" font-size="10.00" fill="#000000">parent_sample: 302_</text>
</g>
<!-- 15&#45;&gt;14 -->
<g id="edge27" class="edge">
<title>15&#45;&gt;14</title>
<path fill="none" stroke="#c0c0c0" stroke-width="2" d="M675,-215.8314C675,-208.131 675,-198.9743 675,-190.4166"/>
<polygon fill="#c0c0c0" stroke="#c0c0c0" stroke-width="2" points="678.5001,-190.4132 675,-180.4133 671.5001,-190.4133 678.5001,-190.4132"/>
</g>
<!-- 16 -->
<g id="node17" class="node">
<title>16</title>
<path fill="none" stroke="#d8ac56" stroke-width="2" d="M882,-108C882,-108 772,-108 772,-108 766,-108 760,-102 760,-96 760,-96 760,-84 760,-84 760,-78 766,-72 772,-72 772,-72 882,-72 882,-72 888,-72 894,-78 894,-84 894,-84 894,-96 894,-96 894,-102 888,-108 882,-108"/>
<text text-anchor="middle" x="827" y="-87.5" font-family="sans" font-size="10.00" fill="#000000">markduplicates_parents</text>
</g>
<!-- 16&#45;&gt;0 -->
<g id="edge6" class="edge">
<title>16&#45;&gt;0</title>
<path fill="none" stroke="#c0c0c0" stroke-width="2" d="M894.0656,-73.765C897.0802,-73.146 900.0688,-72.5542 903,-72 1027.6111,-48.4405 1176.9648,-30.0655 1245.401,-22.1874"/>
<polygon fill="#c0c0c0" stroke="#c0c0c0" stroke-width="2" points="1246.1355,-25.6264 1255.6736,-21.014 1245.341,-18.6716 1246.1355,-25.6264"/>
</g>
<!-- 17 -->
<g id="node18" class="node">
<title>17</title>
<path fill="none" stroke="#afd856" stroke-width="2" stroke-dasharray="5,2" d="M876,-180C876,-180 778,-180 778,-180 772,-180 766,-174 766,-168 766,-168 766,-156 766,-156 766,-150 772,-144 778,-144 778,-144 876,-144 876,-144 882,-144 888,-150 888,-156 888,-156 888,-168 888,-168 888,-174 882,-180 876,-180"/>
<text text-anchor="middle" x="827" y="-159.5" font-family="sans" font-size="10.00" fill="#000000">samtools_sort_parent</text>
</g>
<!-- 17&#45;&gt;16 -->
<g id="edge28" class="edge">
<title>17&#45;&gt;16</title>
<path fill="none" stroke="#c0c0c0" stroke-width="2" d="M827,-143.8314C827,-136.131 827,-126.9743 827,-118.4166"/>
<polygon fill="#c0c0c0" stroke="#c0c0c0" stroke-width="2" points="830.5001,-118.4132 827,-108.4133 823.5001,-118.4133 830.5001,-118.4132"/>
</g>
<!-- 18 -->
<g id="node19" class="node">
<title>18</title>
<path fill="none" stroke="#56a9d8" stroke-width="2" stroke-dasharray="5,2" d="M874.5,-252C874.5,-252 779.5,-252 779.5,-252 773.5,-252 767.5,-246 767.5,-240 767.5,-240 767.5,-228 767.5,-228 767.5,-222 773.5,-216 779.5,-216 779.5,-216 874.5,-216 874.5,-216 880.5,-216 886.5,-222 886.5,-228 886.5,-228 886.5,-240 886.5,-240 886.5,-246 880.5,-252 874.5,-252"/>
<text text-anchor="middle" x="827" y="-237" font-family="sans" font-size="10.00" fill="#000000">bwa_map_parent</text>
<text text-anchor="middle" x="827" y="-226" font-family="sans" font-size="10.00" fill="#000000">parent_sample: 301_</text>
</g>
<!-- 18&#45;&gt;17 -->
<g id="edge29" class="edge">
<title>18&#45;&gt;17</title>
<path fill="none" stroke="#c0c0c0" stroke-width="2" d="M827,-215.8314C827,-208.131 827,-198.9743 827,-190.4166"/>
<polygon fill="#c0c0c0" stroke="#c0c0c0" stroke-width="2" points="830.5001,-190.4132 827,-180.4133 823.5001,-190.4133 830.5001,-190.4132"/>
</g>
<!-- 19 -->
<g id="node20" class="node">
<title>19</title>
<path fill="none" stroke="#d8ac56" stroke-width="2" d="M1034,-108C1034,-108 924,-108 924,-108 918,-108 912,-102 912,-96 912,-96 912,-84 912,-84 912,-78 918,-72 924,-72 924,-72 1034,-72 1034,-72 1040,-72 1046,-78 1046,-84 1046,-84 1046,-96 1046,-96 1046,-102 1040,-108 1034,-108"/>
<text text-anchor="middle" x="979" y="-87.5" font-family="sans" font-size="10.00" fill="#000000">markduplicates_parents</text>
</g>
<!-- 19&#45;&gt;0 -->
<g id="edge7" class="edge">
<title>19&#45;&gt;0</title>
<path fill="none" stroke="#c0c0c0" stroke-width="2" d="M1046.0904,-74.1102C1107.4693,-59.5731 1196.0458,-38.5944 1245.6744,-26.8403"/>
<polygon fill="#c0c0c0" stroke="#c0c0c0" stroke-width="2" points="1246.7255,-30.1882 1255.6497,-24.4777 1245.1122,-23.3767 1246.7255,-30.1882"/>
</g>
<!-- 20 -->
<g id="node21" class="node">
<title>20</title>
<path fill="none" stroke="#afd856" stroke-width="2" stroke-dasharray="5,2" d="M1028,-180C1028,-180 930,-180 930,-180 924,-180 918,-174 918,-168 918,-168 918,-156 918,-156 918,-150 924,-144 930,-144 930,-144 1028,-144 1028,-144 1034,-144 1040,-150 1040,-156 1040,-156 1040,-168 1040,-168 1040,-174 1034,-180 1028,-180"/>
<text text-anchor="middle" x="979" y="-159.5" font-family="sans" font-size="10.00" fill="#000000">samtools_sort_parent</text>
</g>
<!-- 20&#45;&gt;19 -->
<g id="edge30" class="edge">
<title>20&#45;&gt;19</title>
<path fill="none" stroke="#c0c0c0" stroke-width="2" d="M979,-143.8314C979,-136.131 979,-126.9743 979,-118.4166"/>
<polygon fill="#c0c0c0" stroke="#c0c0c0" stroke-width="2" points="982.5001,-118.4132 979,-108.4133 975.5001,-118.4133 982.5001,-118.4132"/>
</g>
<!-- 21 -->
<g id="node22" class="node">
<title>21</title>
<path fill="none" stroke="#56a9d8" stroke-width="2" stroke-dasharray="5,2" d="M1026.5,-252C1026.5,-252 931.5,-252 931.5,-252 925.5,-252 919.5,-246 919.5,-240 919.5,-240 919.5,-228 919.5,-228 919.5,-222 925.5,-216 931.5,-216 931.5,-216 1026.5,-216 1026.5,-216 1032.5,-216 1038.5,-222 1038.5,-228 1038.5,-228 1038.5,-240 1038.5,-240 1038.5,-246 1032.5,-252 1026.5,-252"/>
<text text-anchor="middle" x="979" y="-237" font-family="sans" font-size="10.00" fill="#000000">bwa_map_parent</text>
<text text-anchor="middle" x="979" y="-226" font-family="sans" font-size="10.00" fill="#000000">parent_sample: 312_</text>
</g>
<!-- 21&#45;&gt;20 -->
<g id="edge31" class="edge">
<title>21&#45;&gt;20</title>
<path fill="none" stroke="#c0c0c0" stroke-width="2" d="M979,-215.8314C979,-208.131 979,-198.9743 979,-190.4166"/>
<polygon fill="#c0c0c0" stroke="#c0c0c0" stroke-width="2" points="982.5001,-190.4132 979,-180.4133 975.5001,-190.4133 982.5001,-190.4132"/>
</g>
<!-- 22 -->
<g id="node23" class="node">
<title>22</title>
<path fill="none" stroke="#d8ac56" stroke-width="2" d="M1186,-108C1186,-108 1076,-108 1076,-108 1070,-108 1064,-102 1064,-96 1064,-96 1064,-84 1064,-84 1064,-78 1070,-72 1076,-72 1076,-72 1186,-72 1186,-72 1192,-72 1198,-78 1198,-84 1198,-84 1198,-96 1198,-96 1198,-102 1192,-108 1186,-108"/>
<text text-anchor="middle" x="1131" y="-87.5" font-family="sans" font-size="10.00" fill="#000000">markduplicates_parents</text>
</g>
<!-- 22&#45;&gt;0 -->
<g id="edge8" class="edge">
<title>22&#45;&gt;0</title>
<path fill="none" stroke="#c0c0c0" stroke-width="2" d="M1169.356,-71.8314C1193.0089,-60.6274 1223.1698,-46.3406 1246.4753,-35.3012"/>
<polygon fill="#c0c0c0" stroke="#c0c0c0" stroke-width="2" points="1248.1438,-38.3837 1255.6828,-30.9397 1245.1471,-32.0575 1248.1438,-38.3837"/>
</g>
<!-- 23 -->
<g id="node24" class="node">
<title>23</title>
<path fill="none" stroke="#afd856" stroke-width="2" stroke-dasharray="5,2" d="M1180,-180C1180,-180 1082,-180 1082,-180 1076,-180 1070,-174 1070,-168 1070,-168 1070,-156 1070,-156 1070,-150 1076,-144 1082,-144 1082,-144 1180,-144 1180,-144 1186,-144 1192,-150 1192,-156 1192,-156 1192,-168 1192,-168 1192,-174 1186,-180 1180,-180"/>
<text text-anchor="middle" x="1131" y="-159.5" font-family="sans" font-size="10.00" fill="#000000">samtools_sort_parent</text>
</g>
<!-- 23&#45;&gt;22 -->
<g id="edge32" class="edge">
<title>23&#45;&gt;22</title>
<path fill="none" stroke="#c0c0c0" stroke-width="2" d="M1131,-143.8314C1131,-136.131 1131,-126.9743 1131,-118.4166"/>
<polygon fill="#c0c0c0" stroke="#c0c0c0" stroke-width="2" points="1134.5001,-118.4132 1131,-108.4133 1127.5001,-118.4133 1134.5001,-118.4132"/>
</g>
<!-- 24 -->
<g id="node25" class="node">
<title>24</title>
<path fill="none" stroke="#56a9d8" stroke-width="2" stroke-dasharray="5,2" d="M1178.5,-252C1178.5,-252 1083.5,-252 1083.5,-252 1077.5,-252 1071.5,-246 1071.5,-240 1071.5,-240 1071.5,-228 1071.5,-228 1071.5,-222 1077.5,-216 1083.5,-216 1083.5,-216 1178.5,-216 1178.5,-216 1184.5,-216 1190.5,-222 1190.5,-228 1190.5,-228 1190.5,-240 1190.5,-240 1190.5,-246 1184.5,-252 1178.5,-252"/>
<text text-anchor="middle" x="1131" y="-237" font-family="sans" font-size="10.00" fill="#000000">bwa_map_parent</text>
<text text-anchor="middle" x="1131" y="-226" font-family="sans" font-size="10.00" fill="#000000">parent_sample: 305_</text>
</g>
<!-- 24&#45;&gt;23 -->
<g id="edge33" class="edge">
<title>24&#45;&gt;23</title>
<path fill="none" stroke="#c0c0c0" stroke-width="2" d="M1131,-215.8314C1131,-208.131 1131,-198.9743 1131,-190.4166"/>
<polygon fill="#c0c0c0" stroke="#c0c0c0" stroke-width="2" points="1134.5001,-190.4132 1131,-180.4133 1127.5001,-190.4133 1134.5001,-190.4132"/>
</g>
<!-- 25 -->
<g id="node26" class="node">
<title>25</title>
<path fill="none" stroke="#d8ac56" stroke-width="2" d="M1338,-108C1338,-108 1228,-108 1228,-108 1222,-108 1216,-102 1216,-96 1216,-96 1216,-84 1216,-84 1216,-78 1222,-72 1228,-72 1228,-72 1338,-72 1338,-72 1344,-72 1350,-78 1350,-84 1350,-84 1350,-96 1350,-96 1350,-102 1344,-108 1338,-108"/>
<text text-anchor="middle" x="1283" y="-87.5" font-family="sans" font-size="10.00" fill="#000000">markduplicates_parents</text>
</g>
<!-- 25&#45;&gt;0 -->
<g id="edge9" class="edge">
<title>25&#45;&gt;0</title>
<path fill="none" stroke="#c0c0c0" stroke-width="2" d="M1283,-71.8314C1283,-64.131 1283,-54.9743 1283,-46.4166"/>
<polygon fill="#c0c0c0" stroke="#c0c0c0" stroke-width="2" points="1286.5001,-46.4132 1283,-36.4133 1279.5001,-46.4133 1286.5001,-46.4132"/>
</g>
<!-- 26 -->
<g id="node27" class="node">
<title>26</title>
<path fill="none" stroke="#afd856" stroke-width="2" stroke-dasharray="5,2" d="M1332,-180C1332,-180 1234,-180 1234,-180 1228,-180 1222,-174 1222,-168 1222,-168 1222,-156 1222,-156 1222,-150 1228,-144 1234,-144 1234,-144 1332,-144 1332,-144 1338,-144 1344,-150 1344,-156 1344,-156 1344,-168 1344,-168 1344,-174 1338,-180 1332,-180"/>
<text text-anchor="middle" x="1283" y="-159.5" font-family="sans" font-size="10.00" fill="#000000">samtools_sort_parent</text>
</g>
<!-- 26&#45;&gt;25 -->
<g id="edge34" class="edge">
<title>26&#45;&gt;25</title>
<path fill="none" stroke="#c0c0c0" stroke-width="2" d="M1283,-143.8314C1283,-136.131 1283,-126.9743 1283,-118.4166"/>
<polygon fill="#c0c0c0" stroke="#c0c0c0" stroke-width="2" points="1286.5001,-118.4132 1283,-108.4133 1279.5001,-118.4133 1286.5001,-118.4132"/>
</g>
<!-- 27 -->
<g id="node28" class="node">
<title>27</title>
<path fill="none" stroke="#56a9d8" stroke-width="2" stroke-dasharray="5,2" d="M1330.5,-252C1330.5,-252 1235.5,-252 1235.5,-252 1229.5,-252 1223.5,-246 1223.5,-240 1223.5,-240 1223.5,-228 1223.5,-228 1223.5,-222 1229.5,-216 1235.5,-216 1235.5,-216 1330.5,-216 1330.5,-216 1336.5,-216 1342.5,-222 1342.5,-228 1342.5,-228 1342.5,-240 1342.5,-240 1342.5,-246 1336.5,-252 1330.5,-252"/>
<text text-anchor="middle" x="1283" y="-237" font-family="sans" font-size="10.00" fill="#000000">bwa_map_parent</text>
<text text-anchor="middle" x="1283" y="-226" font-family="sans" font-size="10.00" fill="#000000">parent_sample: 319_</text>
</g>
<!-- 27&#45;&gt;26 -->
<g id="edge35" class="edge">
<title>27&#45;&gt;26</title>
<path fill="none" stroke="#c0c0c0" stroke-width="2" d="M1283,-215.8314C1283,-208.131 1283,-198.9743 1283,-190.4166"/>
<polygon fill="#c0c0c0" stroke="#c0c0c0" stroke-width="2" points="1286.5001,-190.4132 1283,-180.4133 1279.5001,-190.4133 1286.5001,-190.4132"/>
</g>
<!-- 28 -->
<g id="node29" class="node">
<title>28</title>
<path fill="none" stroke="#d8ac56" stroke-width="2" d="M1490,-108C1490,-108 1380,-108 1380,-108 1374,-108 1368,-102 1368,-96 1368,-96 1368,-84 1368,-84 1368,-78 1374,-72 1380,-72 1380,-72 1490,-72 1490,-72 1496,-72 1502,-78 1502,-84 1502,-84 1502,-96 1502,-96 1502,-102 1496,-108 1490,-108"/>
<text text-anchor="middle" x="1435" y="-87.5" font-family="sans" font-size="10.00" fill="#000000">markduplicates_parents</text>
</g>
<!-- 28&#45;&gt;0 -->
<g id="edge10" class="edge">
<title>28&#45;&gt;0</title>
<path fill="none" stroke="#c0c0c0" stroke-width="2" d="M1396.644,-71.8314C1372.9911,-60.6274 1342.8302,-46.3406 1319.5247,-35.3012"/>
<polygon fill="#c0c0c0" stroke="#c0c0c0" stroke-width="2" points="1320.8529,-32.0575 1310.3172,-30.9397 1317.8562,-38.3837 1320.8529,-32.0575"/>
</g>
<!-- 29 -->
<g id="node30" class="node">
<title>29</title>
<path fill="none" stroke="#afd856" stroke-width="2" stroke-dasharray="5,2" d="M1484,-180C1484,-180 1386,-180 1386,-180 1380,-180 1374,-174 1374,-168 1374,-168 1374,-156 1374,-156 1374,-150 1380,-144 1386,-144 1386,-144 1484,-144 1484,-144 1490,-144 1496,-150 1496,-156 1496,-156 1496,-168 1496,-168 1496,-174 1490,-180 1484,-180"/>
<text text-anchor="middle" x="1435" y="-159.5" font-family="sans" font-size="10.00" fill="#000000">samtools_sort_parent</text>
</g>
<!-- 29&#45;&gt;28 -->
<g id="edge36" class="edge">
<title>29&#45;&gt;28</title>
<path fill="none" stroke="#c0c0c0" stroke-width="2" d="M1435,-143.8314C1435,-136.131 1435,-126.9743 1435,-118.4166"/>
<polygon fill="#c0c0c0" stroke="#c0c0c0" stroke-width="2" points="1438.5001,-118.4132 1435,-108.4133 1431.5001,-118.4133 1438.5001,-118.4132"/>
</g>
<!-- 30 -->
<g id="node31" class="node">
<title>30</title>
<path fill="none" stroke="#56a9d8" stroke-width="2" stroke-dasharray="5,2" d="M1482.5,-252C1482.5,-252 1387.5,-252 1387.5,-252 1381.5,-252 1375.5,-246 1375.5,-240 1375.5,-240 1375.5,-228 1375.5,-228 1375.5,-222 1381.5,-216 1387.5,-216 1387.5,-216 1482.5,-216 1482.5,-216 1488.5,-216 1494.5,-222 1494.5,-228 1494.5,-228 1494.5,-240 1494.5,-240 1494.5,-246 1488.5,-252 1482.5,-252"/>
<text text-anchor="middle" x="1435" y="-237" font-family="sans" font-size="10.00" fill="#000000">bwa_map_parent</text>
<text text-anchor="middle" x="1435" y="-226" font-family="sans" font-size="10.00" fill="#000000">parent_sample: 316_</text>
</g>
<!-- 30&#45;&gt;29 -->
<g id="edge37" class="edge">
<title>30&#45;&gt;29</title>
<path fill="none" stroke="#c0c0c0" stroke-width="2" d="M1435,-215.8314C1435,-208.131 1435,-198.9743 1435,-190.4166"/>
<polygon fill="#c0c0c0" stroke="#c0c0c0" stroke-width="2" points="1438.5001,-190.4132 1435,-180.4133 1431.5001,-190.4133 1438.5001,-190.4132"/>
</g>
<!-- 31 -->
<g id="node32" class="node">
<title>31</title>
<path fill="none" stroke="#d8ac56" stroke-width="2" d="M1642,-108C1642,-108 1532,-108 1532,-108 1526,-108 1520,-102 1520,-96 1520,-96 1520,-84 1520,-84 1520,-78 1526,-72 1532,-72 1532,-72 1642,-72 1642,-72 1648,-72 1654,-78 1654,-84 1654,-84 1654,-96 1654,-96 1654,-102 1648,-108 1642,-108"/>
<text text-anchor="middle" x="1587" y="-87.5" font-family="sans" font-size="10.00" fill="#000000">markduplicates_parents</text>
</g>
<!-- 31&#45;&gt;0 -->
<g id="edge11" class="edge">
<title>31&#45;&gt;0</title>
<path fill="none" stroke="#c0c0c0" stroke-width="2" d="M1519.9096,-74.1102C1458.5307,-59.5731 1369.9542,-38.5944 1320.3256,-26.8403"/>
<polygon fill="#c0c0c0" stroke="#c0c0c0" stroke-width="2" points="1320.8878,-23.3767 1310.3503,-24.4777 1319.2745,-30.1882 1320.8878,-23.3767"/>
</g>
<!-- 32 -->
<g id="node33" class="node">
<title>32</title>
<path fill="none" stroke="#afd856" stroke-width="2" stroke-dasharray="5,2" d="M1636,-180C1636,-180 1538,-180 1538,-180 1532,-180 1526,-174 1526,-168 1526,-168 1526,-156 1526,-156 1526,-150 1532,-144 1538,-144 1538,-144 1636,-144 1636,-144 1642,-144 1648,-150 1648,-156 1648,-156 1648,-168 1648,-168 1648,-174 1642,-180 1636,-180"/>
<text text-anchor="middle" x="1587" y="-159.5" font-family="sans" font-size="10.00" fill="#000000">samtools_sort_parent</text>
</g>
<!-- 32&#45;&gt;31 -->
<g id="edge38" class="edge">
<title>32&#45;&gt;31</title>
<path fill="none" stroke="#c0c0c0" stroke-width="2" d="M1587,-143.8314C1587,-136.131 1587,-126.9743 1587,-118.4166"/>
<polygon fill="#c0c0c0" stroke="#c0c0c0" stroke-width="2" points="1590.5001,-118.4132 1587,-108.4133 1583.5001,-118.4133 1590.5001,-118.4132"/>
</g>
<!-- 33 -->
<g id="node34" class="node">
<title>33</title>
<path fill="none" stroke="#56a9d8" stroke-width="2" stroke-dasharray="5,2" d="M1634.5,-252C1634.5,-252 1539.5,-252 1539.5,-252 1533.5,-252 1527.5,-246 1527.5,-240 1527.5,-240 1527.5,-228 1527.5,-228 1527.5,-222 1533.5,-216 1539.5,-216 1539.5,-216 1634.5,-216 1634.5,-216 1640.5,-216 1646.5,-222 1646.5,-228 1646.5,-228 1646.5,-240 1646.5,-240 1646.5,-246 1640.5,-252 1634.5,-252"/>
<text text-anchor="middle" x="1587" y="-237" font-family="sans" font-size="10.00" fill="#000000">bwa_map_parent</text>
<text text-anchor="middle" x="1587" y="-226" font-family="sans" font-size="10.00" fill="#000000">parent_sample: 315_</text>
</g>
<!-- 33&#45;&gt;32 -->
<g id="edge39" class="edge">
<title>33&#45;&gt;32</title>
<path fill="none" stroke="#c0c0c0" stroke-width="2" d="M1587,-215.8314C1587,-208.131 1587,-198.9743 1587,-190.4166"/>
<polygon fill="#c0c0c0" stroke="#c0c0c0" stroke-width="2" points="1590.5001,-190.4132 1587,-180.4133 1583.5001,-190.4133 1590.5001,-190.4132"/>
</g>
<!-- 34 -->
<g id="node35" class="node">
<title>34</title>
<path fill="none" stroke="#d8ac56" stroke-width="2" d="M1794,-108C1794,-108 1684,-108 1684,-108 1678,-108 1672,-102 1672,-96 1672,-96 1672,-84 1672,-84 1672,-78 1678,-72 1684,-72 1684,-72 1794,-72 1794,-72 1800,-72 1806,-78 1806,-84 1806,-84 1806,-96 1806,-96 1806,-102 1800,-108 1794,-108"/>
<text text-anchor="middle" x="1739" y="-87.5" font-family="sans" font-size="10.00" fill="#000000">markduplicates_parents</text>
</g>
<!-- 34&#45;&gt;0 -->
<g id="edge12" class="edge">
<title>34&#45;&gt;0</title>
<path fill="none" stroke="#c0c0c0" stroke-width="2" d="M1671.9344,-73.765C1668.9198,-73.146 1665.9312,-72.5542 1663,-72 1538.3889,-48.4405 1389.0352,-30.0655 1320.599,-22.1874"/>
<polygon fill="#c0c0c0" stroke="#c0c0c0" stroke-width="2" points="1320.659,-18.6716 1310.3264,-21.014 1319.8645,-25.6264 1320.659,-18.6716"/>
</g>
<!-- 35 -->
<g id="node36" class="node">
<title>35</title>
<path fill="none" stroke="#afd856" stroke-width="2" stroke-dasharray="5,2" d="M1788,-180C1788,-180 1690,-180 1690,-180 1684,-180 1678,-174 1678,-168 1678,-168 1678,-156 1678,-156 1678,-150 1684,-144 1690,-144 1690,-144 1788,-144 1788,-144 1794,-144 1800,-150 1800,-156 1800,-156 1800,-168 1800,-168 1800,-174 1794,-180 1788,-180"/>
<text text-anchor="middle" x="1739" y="-159.5" font-family="sans" font-size="10.00" fill="#000000">samtools_sort_parent</text>
</g>
<!-- 35&#45;&gt;34 -->
<g id="edge40" class="edge">
<title>35&#45;&gt;34</title>
<path fill="none" stroke="#c0c0c0" stroke-width="2" d="M1739,-143.8314C1739,-136.131 1739,-126.9743 1739,-118.4166"/>
<polygon fill="#c0c0c0" stroke="#c0c0c0" stroke-width="2" points="1742.5001,-118.4132 1739,-108.4133 1735.5001,-118.4133 1742.5001,-118.4132"/>
</g>
<!-- 36 -->
<g id="node37" class="node">
<title>36</title>
<path fill="none" stroke="#56a9d8" stroke-width="2" stroke-dasharray="5,2" d="M1786.5,-252C1786.5,-252 1691.5,-252 1691.5,-252 1685.5,-252 1679.5,-246 1679.5,-240 1679.5,-240 1679.5,-228 1679.5,-228 1679.5,-222 1685.5,-216 1691.5,-216 1691.5,-216 1786.5,-216 1786.5,-216 1792.5,-216 1798.5,-222 1798.5,-228 1798.5,-228 1798.5,-240 1798.5,-240 1798.5,-246 1792.5,-252 1786.5,-252"/>
<text text-anchor="middle" x="1739" y="-237" font-family="sans" font-size="10.00" fill="#000000">bwa_map_parent</text>
<text text-anchor="middle" x="1739" y="-226" font-family="sans" font-size="10.00" fill="#000000">parent_sample: 304_</text>
</g>
<!-- 36&#45;&gt;35 -->
<g id="edge41" class="edge">
<title>36&#45;&gt;35</title>
<path fill="none" stroke="#c0c0c0" stroke-width="2" d="M1739,-215.8314C1739,-208.131 1739,-198.9743 1739,-190.4166"/>
<polygon fill="#c0c0c0" stroke="#c0c0c0" stroke-width="2" points="1742.5001,-190.4132 1739,-180.4133 1735.5001,-190.4133 1742.5001,-190.4132"/>
</g>
<!-- 37 -->
<g id="node38" class="node">
<title>37</title>
<path fill="none" stroke="#d8ac56" stroke-width="2" d="M1946,-108C1946,-108 1836,-108 1836,-108 1830,-108 1824,-102 1824,-96 1824,-96 1824,-84 1824,-84 1824,-78 1830,-72 1836,-72 1836,-72 1946,-72 1946,-72 1952,-72 1958,-78 1958,-84 1958,-84 1958,-96 1958,-96 1958,-102 1952,-108 1946,-108"/>
<text text-anchor="middle" x="1891" y="-87.5" font-family="sans" font-size="10.00" fill="#000000">markduplicates_parents</text>
</g>
<!-- 37&#45;&gt;0 -->
<g id="edge13" class="edge">
<title>37&#45;&gt;0</title>
<path fill="none" stroke="#c0c0c0" stroke-width="2" d="M1823.9607,-73.6178C1820.939,-73.0387 1817.9417,-72.4954 1815,-72 1630.6698,-40.9545 1407.191,-25.3394 1320.1789,-20.0875"/>
<polygon fill="#c0c0c0" stroke="#c0c0c0" stroke-width="2" points="1320.2062,-16.583 1310.0163,-19.484 1319.7912,-23.5707 1320.2062,-16.583"/>
</g>
<!-- 38 -->
<g id="node39" class="node">
<title>38</title>
<path fill="none" stroke="#afd856" stroke-width="2" stroke-dasharray="5,2" d="M1940,-180C1940,-180 1842,-180 1842,-180 1836,-180 1830,-174 1830,-168 1830,-168 1830,-156 1830,-156 1830,-150 1836,-144 1842,-144 1842,-144 1940,-144 1940,-144 1946,-144 1952,-150 1952,-156 1952,-156 1952,-168 1952,-168 1952,-174 1946,-180 1940,-180"/>
<text text-anchor="middle" x="1891" y="-159.5" font-family="sans" font-size="10.00" fill="#000000">samtools_sort_parent</text>
</g>
<!-- 38&#45;&gt;37 -->
<g id="edge42" class="edge">
<title>38&#45;&gt;37</title>
<path fill="none" stroke="#c0c0c0" stroke-width="2" d="M1891,-143.8314C1891,-136.131 1891,-126.9743 1891,-118.4166"/>
<polygon fill="#c0c0c0" stroke="#c0c0c0" stroke-width="2" points="1894.5001,-118.4132 1891,-108.4133 1887.5001,-118.4133 1894.5001,-118.4132"/>
</g>
<!-- 39 -->
<g id="node40" class="node">
<title>39</title>
<path fill="none" stroke="#56a9d8" stroke-width="2" stroke-dasharray="5,2" d="M1938.5,-252C1938.5,-252 1843.5,-252 1843.5,-252 1837.5,-252 1831.5,-246 1831.5,-240 1831.5,-240 1831.5,-228 1831.5,-228 1831.5,-222 1837.5,-216 1843.5,-216 1843.5,-216 1938.5,-216 1938.5,-216 1944.5,-216 1950.5,-222 1950.5,-228 1950.5,-228 1950.5,-240 1950.5,-240 1950.5,-246 1944.5,-252 1938.5,-252"/>
<text text-anchor="middle" x="1891" y="-237" font-family="sans" font-size="10.00" fill="#000000">bwa_map_parent</text>
<text text-anchor="middle" x="1891" y="-226" font-family="sans" font-size="10.00" fill="#000000">parent_sample: 320_</text>
</g>
<!-- 39&#45;&gt;38 -->
<g id="edge43" class="edge">
<title>39&#45;&gt;38</title>
<path fill="none" stroke="#c0c0c0" stroke-width="2" d="M1891,-215.8314C1891,-208.131 1891,-198.9743 1891,-190.4166"/>
<polygon fill="#c0c0c0" stroke="#c0c0c0" stroke-width="2" points="1894.5001,-190.4132 1891,-180.4133 1887.5001,-190.4133 1894.5001,-190.4132"/>
</g>
<!-- 40 -->
<g id="node41" class="node">
<title>40</title>
<path fill="none" stroke="#d8ac56" stroke-width="2" d="M2098,-108C2098,-108 1988,-108 1988,-108 1982,-108 1976,-102 1976,-96 1976,-96 1976,-84 1976,-84 1976,-78 1982,-72 1988,-72 1988,-72 2098,-72 2098,-72 2104,-72 2110,-78 2110,-84 2110,-84 2110,-96 2110,-96 2110,-102 2104,-108 2098,-108"/>
<text text-anchor="middle" x="2043" y="-87.5" font-family="sans" font-size="10.00" fill="#000000">markduplicates_parents</text>
</g>
<!-- 40&#45;&gt;0 -->
<g id="edge14" class="edge">
<title>40&#45;&gt;0</title>
<path fill="none" stroke="#c0c0c0" stroke-width="2" d="M1975.9741,-73.5352C1972.9488,-72.9785 1969.947,-72.4625 1967,-72 1722.3537,-33.6051 1423.9711,-21.9581 1320.4671,-18.9365"/>
<polygon fill="#c0c0c0" stroke="#c0c0c0" stroke-width="2" points="1320.3164,-15.431 1310.2215,-18.6473 1320.1188,-22.4282 1320.3164,-15.431"/>
</g>
<!-- 41 -->
<g id="node42" class="node">
<title>41</title>
<path fill="none" stroke="#afd856" stroke-width="2" stroke-dasharray="5,2" d="M2092,-180C2092,-180 1994,-180 1994,-180 1988,-180 1982,-174 1982,-168 1982,-168 1982,-156 1982,-156 1982,-150 1988,-144 1994,-144 1994,-144 2092,-144 2092,-144 2098,-144 2104,-150 2104,-156 2104,-156 2104,-168 2104,-168 2104,-174 2098,-180 2092,-180"/>
<text text-anchor="middle" x="2043" y="-159.5" font-family="sans" font-size="10.00" fill="#000000">samtools_sort_parent</text>
</g>
<!-- 41&#45;&gt;40 -->
<g id="edge44" class="edge">
<title>41&#45;&gt;40</title>
<path fill="none" stroke="#c0c0c0" stroke-width="2" d="M2043,-143.8314C2043,-136.131 2043,-126.9743 2043,-118.4166"/>
<polygon fill="#c0c0c0" stroke="#c0c0c0" stroke-width="2" points="2046.5001,-118.4132 2043,-108.4133 2039.5001,-118.4133 2046.5001,-118.4132"/>
</g>
<!-- 42 -->
<g id="node43" class="node">
<title>42</title>
<path fill="none" stroke="#56a9d8" stroke-width="2" stroke-dasharray="5,2" d="M2090.5,-252C2090.5,-252 1995.5,-252 1995.5,-252 1989.5,-252 1983.5,-246 1983.5,-240 1983.5,-240 1983.5,-228 1983.5,-228 1983.5,-222 1989.5,-216 1995.5,-216 1995.5,-216 2090.5,-216 2090.5,-216 2096.5,-216 2102.5,-222 2102.5,-228 2102.5,-228 2102.5,-240 2102.5,-240 2102.5,-246 2096.5,-252 2090.5,-252"/>
<text text-anchor="middle" x="2043" y="-237" font-family="sans" font-size="10.00" fill="#000000">bwa_map_parent</text>
<text text-anchor="middle" x="2043" y="-226" font-family="sans" font-size="10.00" fill="#000000">parent_sample: 310_</text>
</g>
<!-- 42&#45;&gt;41 -->
<g id="edge45" class="edge">
<title>42&#45;&gt;41</title>
<path fill="none" stroke="#c0c0c0" stroke-width="2" d="M2043,-215.8314C2043,-208.131 2043,-198.9743 2043,-190.4166"/>
<polygon fill="#c0c0c0" stroke="#c0c0c0" stroke-width="2" points="2046.5001,-190.4132 2043,-180.4133 2039.5001,-190.4133 2046.5001,-190.4132"/>
</g>
<!-- 43 -->
<g id="node44" class="node">
<title>43</title>
<path fill="none" stroke="#d8ac56" stroke-width="2" d="M2250,-108C2250,-108 2140,-108 2140,-108 2134,-108 2128,-102 2128,-96 2128,-96 2128,-84 2128,-84 2128,-78 2134,-72 2140,-72 2140,-72 2250,-72 2250,-72 2256,-72 2262,-78 2262,-84 2262,-84 2262,-96 2262,-96 2262,-102 2256,-108 2250,-108"/>
<text text-anchor="middle" x="2195" y="-87.5" font-family="sans" font-size="10.00" fill="#000000">markduplicates_parents</text>
</g>
<!-- 43&#45;&gt;0 -->
<g id="edge15" class="edge">
<title>43&#45;&gt;0</title>
<path fill="none" stroke="#c0c0c0" stroke-width="2" d="M2127.9822,-73.4825C2124.9547,-72.94 2121.9502,-72.4415 2119,-72 1961.464,-48.4275 1461.4657,-25.6598 1320.3878,-19.5774"/>
<polygon fill="#c0c0c0" stroke="#c0c0c0" stroke-width="2" points="1320.2457,-16.0682 1310.1049,-19.1363 1319.9457,-23.0618 1320.2457,-16.0682"/>
</g>
<!-- 44 -->
<g id="node45" class="node">
<title>44</title>
<path fill="none" stroke="#afd856" stroke-width="2" stroke-dasharray="5,2" d="M2244,-180C2244,-180 2146,-180 2146,-180 2140,-180 2134,-174 2134,-168 2134,-168 2134,-156 2134,-156 2134,-150 2140,-144 2146,-144 2146,-144 2244,-144 2244,-144 2250,-144 2256,-150 2256,-156 2256,-156 2256,-168 2256,-168 2256,-174 2250,-180 2244,-180"/>
<text text-anchor="middle" x="2195" y="-159.5" font-family="sans" font-size="10.00" fill="#000000">samtools_sort_parent</text>
</g>
<!-- 44&#45;&gt;43 -->
<g id="edge46" class="edge">
<title>44&#45;&gt;43</title>
<path fill="none" stroke="#c0c0c0" stroke-width="2" d="M2195,-143.8314C2195,-136.131 2195,-126.9743 2195,-118.4166"/>
<polygon fill="#c0c0c0" stroke="#c0c0c0" stroke-width="2" points="2198.5001,-118.4132 2195,-108.4133 2191.5001,-118.4133 2198.5001,-118.4132"/>
</g>
<!-- 45 -->
<g id="node46" class="node">
<title>45</title>
<path fill="none" stroke="#56a9d8" stroke-width="2" stroke-dasharray="5,2" d="M2242.5,-252C2242.5,-252 2147.5,-252 2147.5,-252 2141.5,-252 2135.5,-246 2135.5,-240 2135.5,-240 2135.5,-228 2135.5,-228 2135.5,-222 2141.5,-216 2147.5,-216 2147.5,-216 2242.5,-216 2242.5,-216 2248.5,-216 2254.5,-222 2254.5,-228 2254.5,-228 2254.5,-240 2254.5,-240 2254.5,-246 2248.5,-252 2242.5,-252"/>
<text text-anchor="middle" x="2195" y="-237" font-family="sans" font-size="10.00" fill="#000000">bwa_map_parent</text>
<text text-anchor="middle" x="2195" y="-226" font-family="sans" font-size="10.00" fill="#000000">parent_sample: 313_</text>
</g>
<!-- 45&#45;&gt;44 -->
<g id="edge47" class="edge">
<title>45&#45;&gt;44</title>
<path fill="none" stroke="#c0c0c0" stroke-width="2" d="M2195,-215.8314C2195,-208.131 2195,-198.9743 2195,-190.4166"/>
<polygon fill="#c0c0c0" stroke="#c0c0c0" stroke-width="2" points="2198.5001,-190.4132 2195,-180.4133 2191.5001,-190.4133 2198.5001,-190.4132"/>
</g>
<!-- 46 -->
<g id="node47" class="node">
<title>46</title>
<path fill="none" stroke="#d8ac56" stroke-width="2" d="M2402,-108C2402,-108 2292,-108 2292,-108 2286,-108 2280,-102 2280,-96 2280,-96 2280,-84 2280,-84 2280,-78 2286,-72 2292,-72 2292,-72 2402,-72 2402,-72 2408,-72 2414,-78 2414,-84 2414,-84 2414,-96 2414,-96 2414,-102 2408,-108 2402,-108"/>
<text text-anchor="middle" x="2347" y="-87.5" font-family="sans" font-size="10.00" fill="#000000">markduplicates_parents</text>
</g>
<!-- 46&#45;&gt;0 -->
<g id="edge16" class="edge">
<title>46&#45;&gt;0</title>
<path fill="none" stroke="#c0c0c0" stroke-width="2" d="M2279.9876,-73.4458C2276.9586,-72.9132 2273.9524,-72.4268 2271,-72 2082.1582,-44.6984 1477.088,-24.117 1320.3577,-19.151"/>
<polygon fill="#c0c0c0" stroke="#c0c0c0" stroke-width="2" points="1320.38,-15.65 1310.2747,-18.8335 1320.1596,-22.6465 1320.38,-15.65"/>
</g>
<!-- 47 -->
<g id="node48" class="node">
<title>47</title>
<path fill="none" stroke="#afd856" stroke-width="2" stroke-dasharray="5,2" d="M2396,-180C2396,-180 2298,-180 2298,-180 2292,-180 2286,-174 2286,-168 2286,-168 2286,-156 2286,-156 2286,-150 2292,-144 2298,-144 2298,-144 2396,-144 2396,-144 2402,-144 2408,-150 2408,-156 2408,-156 2408,-168 2408,-168 2408,-174 2402,-180 2396,-180"/>
<text text-anchor="middle" x="2347" y="-159.5" font-family="sans" font-size="10.00" fill="#000000">samtools_sort_parent</text>
</g>
<!-- 47&#45;&gt;46 -->
<g id="edge48" class="edge">
<title>47&#45;&gt;46</title>
<path fill="none" stroke="#c0c0c0" stroke-width="2" d="M2347,-143.8314C2347,-136.131 2347,-126.9743 2347,-118.4166"/>
<polygon fill="#c0c0c0" stroke="#c0c0c0" stroke-width="2" points="2350.5001,-118.4132 2347,-108.4133 2343.5001,-118.4133 2350.5001,-118.4132"/>
</g>
<!-- 48 -->
<g id="node49" class="node">
<title>48</title>
<path fill="none" stroke="#56a9d8" stroke-width="2" stroke-dasharray="5,2" d="M2394.5,-252C2394.5,-252 2299.5,-252 2299.5,-252 2293.5,-252 2287.5,-246 2287.5,-240 2287.5,-240 2287.5,-228 2287.5,-228 2287.5,-222 2293.5,-216 2299.5,-216 2299.5,-216 2394.5,-216 2394.5,-216 2400.5,-216 2406.5,-222 2406.5,-228 2406.5,-228 2406.5,-240 2406.5,-240 2406.5,-246 2400.5,-252 2394.5,-252"/>
<text text-anchor="middle" x="2347" y="-237" font-family="sans" font-size="10.00" fill="#000000">bwa_map_parent</text>
<text text-anchor="middle" x="2347" y="-226" font-family="sans" font-size="10.00" fill="#000000">parent_sample: 308_</text>
</g>
<!-- 48&#45;&gt;47 -->
<g id="edge49" class="edge">
<title>48&#45;&gt;47</title>
<path fill="none" stroke="#c0c0c0" stroke-width="2" d="M2347,-215.8314C2347,-208.131 2347,-198.9743 2347,-190.4166"/>
<polygon fill="#c0c0c0" stroke="#c0c0c0" stroke-width="2" points="2350.5001,-190.4132 2347,-180.4133 2343.5001,-190.4133 2350.5001,-190.4132"/>
</g>
<!-- 49 -->
<g id="node50" class="node">
<title>49</title>
<path fill="none" stroke="#d8ac56" stroke-width="2" d="M2554,-108C2554,-108 2444,-108 2444,-108 2438,-108 2432,-102 2432,-96 2432,-96 2432,-84 2432,-84 2432,-78 2438,-72 2444,-72 2444,-72 2554,-72 2554,-72 2560,-72 2566,-78 2566,-84 2566,-84 2566,-96 2566,-96 2566,-102 2560,-108 2554,-108"/>
<text text-anchor="middle" x="2499" y="-87.5" font-family="sans" font-size="10.00" fill="#000000">markduplicates_parents</text>
</g>
<!-- 49&#45;&gt;0 -->
<g id="edge17" class="edge">
<title>49&#45;&gt;0</title>
<path fill="none" stroke="#c0c0c0" stroke-width="2" d="M2431.9915,-73.4189C2428.9614,-72.8936 2425.9539,-72.4161 2423,-72 2202.7161,-40.9695 1491.7803,-22.8289 1320.4182,-18.8398"/>
<polygon fill="#c0c0c0" stroke="#c0c0c0" stroke-width="2" points="1320.4519,-15.3398 1310.3737,-18.6079 1320.2902,-22.3379 1320.4519,-15.3398"/>
</g>
<!-- 50 -->
<g id="node51" class="node">
<title>50</title>
<path fill="none" stroke="#afd856" stroke-width="2" stroke-dasharray="5,2" d="M2548,-180C2548,-180 2450,-180 2450,-180 2444,-180 2438,-174 2438,-168 2438,-168 2438,-156 2438,-156 2438,-150 2444,-144 2450,-144 2450,-144 2548,-144 2548,-144 2554,-144 2560,-150 2560,-156 2560,-156 2560,-168 2560,-168 2560,-174 2554,-180 2548,-180"/>
<text text-anchor="middle" x="2499" y="-159.5" font-family="sans" font-size="10.00" fill="#000000">samtools_sort_parent</text>
</g>
<!-- 50&#45;&gt;49 -->
<g id="edge50" class="edge">
<title>50&#45;&gt;49</title>
<path fill="none" stroke="#c0c0c0" stroke-width="2" d="M2499,-143.8314C2499,-136.131 2499,-126.9743 2499,-118.4166"/>
<polygon fill="#c0c0c0" stroke="#c0c0c0" stroke-width="2" points="2502.5001,-118.4132 2499,-108.4133 2495.5001,-118.4133 2502.5001,-118.4132"/>
</g>
<!-- 51 -->
<g id="node52" class="node">
<title>51</title>
<path fill="none" stroke="#56a9d8" stroke-width="2" stroke-dasharray="5,2" d="M2546.5,-252C2546.5,-252 2451.5,-252 2451.5,-252 2445.5,-252 2439.5,-246 2439.5,-240 2439.5,-240 2439.5,-228 2439.5,-228 2439.5,-222 2445.5,-216 2451.5,-216 2451.5,-216 2546.5,-216 2546.5,-216 2552.5,-216 2558.5,-222 2558.5,-228 2558.5,-228 2558.5,-240 2558.5,-240 2558.5,-246 2552.5,-252 2546.5,-252"/>
<text text-anchor="middle" x="2499" y="-237" font-family="sans" font-size="10.00" fill="#000000">bwa_map_parent</text>
<text text-anchor="middle" x="2499" y="-226" font-family="sans" font-size="10.00" fill="#000000">parent_sample: 318_</text>
</g>
<!-- 51&#45;&gt;50 -->
<g id="edge51" class="edge">
<title>51&#45;&gt;50</title>
<path fill="none" stroke="#c0c0c0" stroke-width="2" d="M2499,-215.8314C2499,-208.131 2499,-198.9743 2499,-190.4166"/>
<polygon fill="#c0c0c0" stroke="#c0c0c0" stroke-width="2" points="2502.5001,-190.4132 2499,-180.4133 2495.5001,-190.4133 2502.5001,-190.4132"/>
</g>
</g>
</svg>
