<?xml version="1.0" encoding="UTF-8" standalone="no"?>
<!DOCTYPE svg PUBLIC "-//W3C//DTD SVG 1.1//EN"
 "http://www.w3.org/Graphics/SVG/1.1/DTD/svg11.dtd">
<!-- Generated by graphviz version 2.43.0 (0)
 -->
<!-- Title: snakemake_dag Pages: 1 -->
<svg width="817pt" height="404pt"
 viewBox="0.00 0.00 816.56 404.00" xmlns="http://www.w3.org/2000/svg" xmlns:xlink="http://www.w3.org/1999/xlink">
<g id="graph0" class="graph" transform="scale(1 1) rotate(0) translate(4 400)">
<title>snakemake_dag</title>
<polygon fill="white" stroke="transparent" points="-4,4 -4,-400 812.56,-400 812.56,4 -4,4"/>
<!-- 0 -->
<g id="node1" class="node">
<title>0</title>
<path fill="none" stroke="#56d8c9" stroke-width="2" stroke-dasharray="5,2" d="M357.06,-36C357.06,-36 327.06,-36 327.06,-36 321.06,-36 315.06,-30 315.06,-24 315.06,-24 315.06,-12 315.06,-12 315.06,-6 321.06,0 327.06,0 327.06,0 357.06,0 357.06,0 363.06,0 369.06,-6 369.06,-12 369.06,-12 369.06,-24 369.06,-24 369.06,-30 363.06,-36 357.06,-36"/>
<text text-anchor="middle" x="342.06" y="-15.5" font-family="sans" font-size="10.00">all</text>
</g>
<!-- 1 -->
<g id="node2" class="node">
<title>1</title>
<path fill="none" stroke="#d85656" stroke-width="2" stroke-dasharray="5,2" d="M379.56,-396C379.56,-396 314.56,-396 314.56,-396 308.56,-396 302.56,-390 302.56,-384 302.56,-384 302.56,-372 302.56,-372 302.56,-366 308.56,-360 314.56,-360 314.56,-360 379.56,-360 379.56,-360 385.56,-360 391.56,-366 391.56,-372 391.56,-372 391.56,-384 391.56,-384 391.56,-390 385.56,-396 379.56,-396"/>
<text text-anchor="middle" x="347.06" y="-375.5" font-family="sans" font-size="10.00">index_genome</text>
</g>
<!-- 1&#45;&gt;0 -->
<g id="edge1" class="edge">
<title>1&#45;&gt;0</title>
<path fill="none" stroke="grey" stroke-width="2" d="M302.33,-375.01C225.14,-370.7 71.35,-357.99 31.06,-324 -0.95,-296.99 0.06,-276.89 0.06,-235 0.06,-235 0.06,-235 0.06,-161 0.06,-108.98 31.19,-98.31 76.06,-72 148.99,-29.24 250.45,-20.39 304.56,-18.92"/>
<polygon fill="grey" stroke="grey" stroke-width="2" points="304.8,-22.41 314.73,-18.71 304.66,-15.41 304.8,-22.41"/>
</g>
<!-- 6 -->
<g id="node7" class="node">
<title>6</title>
<path fill="none" stroke="#56d87b" stroke-width="2" stroke-dasharray="5,2" d="M165.56,-324C165.56,-324 52.56,-324 52.56,-324 46.56,-324 40.56,-318 40.56,-312 40.56,-312 40.56,-300 40.56,-300 40.56,-294 46.56,-288 52.56,-288 52.56,-288 165.56,-288 165.56,-288 171.56,-288 177.56,-294 177.56,-300 177.56,-300 177.56,-312 177.56,-312 177.56,-318 171.56,-324 165.56,-324"/>
<text text-anchor="middle" x="109.06" y="-309" font-family="sans" font-size="10.00">bwa_map</text>
<text text-anchor="middle" x="109.06" y="-298" font-family="sans" font-size="10.00">sample: /Astro1_MTHFR.</text>
</g>
<!-- 1&#45;&gt;6 -->
<g id="edge12" class="edge">
<title>1&#45;&gt;6</title>
<path fill="none" stroke="grey" stroke-width="2" d="M302.3,-363.83C266.97,-353.44 217.11,-338.78 176.88,-326.95"/>
<polygon fill="grey" stroke="grey" stroke-width="2" points="177.72,-323.55 167.14,-324.08 175.75,-330.26 177.72,-323.55"/>
</g>
<!-- 10 -->
<g id="node11" class="node">
<title>10</title>
<path fill="none" stroke="#56d87b" stroke-width="2" stroke-dasharray="5,2" d="M326.56,-324C326.56,-324 213.56,-324 213.56,-324 207.56,-324 201.56,-318 201.56,-312 201.56,-312 201.56,-300 201.56,-300 201.56,-294 207.56,-288 213.56,-288 213.56,-288 326.56,-288 326.56,-288 332.56,-288 338.56,-294 338.56,-300 338.56,-300 338.56,-312 338.56,-312 338.56,-318 332.56,-324 326.56,-324"/>
<text text-anchor="middle" x="270.06" y="-309" font-family="sans" font-size="10.00">bwa_map</text>
<text text-anchor="middle" x="270.06" y="-298" font-family="sans" font-size="10.00">sample: /Astro4_MTHFR.</text>
</g>
<!-- 1&#45;&gt;10 -->
<g id="edge17" class="edge">
<title>1&#45;&gt;10</title>
<path fill="none" stroke="grey" stroke-width="2" d="M328.03,-359.7C318.52,-351.05 306.86,-340.45 296.49,-331.03"/>
<polygon fill="grey" stroke="grey" stroke-width="2" points="298.63,-328.24 288.88,-324.1 293.92,-333.42 298.63,-328.24"/>
</g>
<!-- 14 -->
<g id="node15" class="node">
<title>14</title>
<path fill="none" stroke="#56d87b" stroke-width="2" stroke-dasharray="5,2" d="M484.56,-324C484.56,-324 371.56,-324 371.56,-324 365.56,-324 359.56,-318 359.56,-312 359.56,-312 359.56,-300 359.56,-300 359.56,-294 365.56,-288 371.56,-288 371.56,-288 484.56,-288 484.56,-288 490.56,-288 496.56,-294 496.56,-300 496.56,-300 496.56,-312 496.56,-312 496.56,-318 490.56,-324 484.56,-324"/>
<text text-anchor="middle" x="428.06" y="-309" font-family="sans" font-size="10.00">bwa_map</text>
<text text-anchor="middle" x="428.06" y="-298" font-family="sans" font-size="10.00">sample: /Astro5_MTHFR.</text>
</g>
<!-- 1&#45;&gt;14 -->
<g id="edge22" class="edge">
<title>1&#45;&gt;14</title>
<path fill="none" stroke="grey" stroke-width="2" d="M367.09,-359.7C377.19,-350.97 389.6,-340.24 400.58,-330.75"/>
<polygon fill="grey" stroke="grey" stroke-width="2" points="402.99,-333.29 408.27,-324.1 398.42,-327.99 402.99,-333.29"/>
</g>
<!-- 18 -->
<g id="node19" class="node">
<title>18</title>
<path fill="none" stroke="#56d87b" stroke-width="2" stroke-dasharray="5,2" d="M640.56,-324C640.56,-324 527.56,-324 527.56,-324 521.56,-324 515.56,-318 515.56,-312 515.56,-312 515.56,-300 515.56,-300 515.56,-294 521.56,-288 527.56,-288 527.56,-288 640.56,-288 640.56,-288 646.56,-288 652.56,-294 652.56,-300 652.56,-300 652.56,-312 652.56,-312 652.56,-318 646.56,-324 640.56,-324"/>
<text text-anchor="middle" x="584.06" y="-309" font-family="sans" font-size="10.00">bwa_map</text>
<text text-anchor="middle" x="584.06" y="-298" font-family="sans" font-size="10.00">sample: /Astro3_MTHFR.</text>
</g>
<!-- 1&#45;&gt;18 -->
<g id="edge27" class="edge">
<title>1&#45;&gt;18</title>
<path fill="none" stroke="grey" stroke-width="2" d="M391.64,-363.83C426.82,-353.44 476.47,-338.78 516.53,-326.95"/>
<polygon fill="grey" stroke="grey" stroke-width="2" points="517.63,-330.27 526.23,-324.08 515.65,-323.56 517.63,-330.27"/>
</g>
<!-- 22 -->
<g id="node23" class="node">
<title>22</title>
<path fill="none" stroke="#56d87b" stroke-width="2" stroke-dasharray="5,2" d="M796.56,-324C796.56,-324 683.56,-324 683.56,-324 677.56,-324 671.56,-318 671.56,-312 671.56,-312 671.56,-300 671.56,-300 671.56,-294 677.56,-288 683.56,-288 683.56,-288 796.56,-288 796.56,-288 802.56,-288 808.56,-294 808.56,-300 808.56,-300 808.56,-312 808.56,-312 808.56,-318 802.56,-324 796.56,-324"/>
<text text-anchor="middle" x="740.06" y="-309" font-family="sans" font-size="10.00">bwa_map</text>
<text text-anchor="middle" x="740.06" y="-298" font-family="sans" font-size="10.00">sample: /Astro2_MTHFR.</text>
</g>
<!-- 1&#45;&gt;22 -->
<g id="edge32" class="edge">
<title>1&#45;&gt;22</title>
<path fill="none" stroke="grey" stroke-width="2" d="M391.64,-370.12C452.61,-360.56 565.37,-342.36 661.06,-324 661.17,-323.98 661.27,-323.96 661.37,-323.94"/>
<polygon fill="grey" stroke="grey" stroke-width="2" points="662.03,-327.38 671.16,-322.02 660.68,-320.51 662.03,-327.38"/>
</g>
<!-- 2 -->
<g id="node3" class="node">
<title>2</title>
<path fill="none" stroke="#c6d856" stroke-width="2" stroke-dasharray="5,2" d="M383.06,-252C383.06,-252 313.06,-252 313.06,-252 307.06,-252 301.06,-246 301.06,-240 301.06,-240 301.06,-228 301.06,-228 301.06,-222 307.06,-216 313.06,-216 313.06,-216 383.06,-216 383.06,-216 389.06,-216 395.06,-222 395.06,-228 395.06,-228 395.06,-240 395.06,-240 395.06,-246 389.06,-252 383.06,-252"/>
<text text-anchor="middle" x="348.06" y="-231.5" font-family="sans" font-size="10.00">samtools_index</text>
</g>
<!-- 2&#45;&gt;0 -->
<g id="edge2" class="edge">
<title>2&#45;&gt;0</title>
<path fill="none" stroke="grey" stroke-width="2" d="M347.58,-215.85C346.54,-178.83 344.09,-91.18 342.83,-46.39"/>
<polygon fill="grey" stroke="grey" stroke-width="2" points="346.33,-46.13 342.55,-36.23 339.33,-46.33 346.33,-46.13"/>
</g>
<!-- 4 -->
<g id="node5" class="node">
<title>4</title>
<path fill="none" stroke="#d8a456" stroke-width="2" stroke-dasharray="5,2" d="M150.06,-180C150.06,-180 40.06,-180 40.06,-180 34.06,-180 28.06,-174 28.06,-168 28.06,-168 28.06,-156 28.06,-156 28.06,-150 34.06,-144 40.06,-144 40.06,-144 150.06,-144 150.06,-144 156.06,-144 162.06,-150 162.06,-156 162.06,-156 162.06,-168 162.06,-168 162.06,-174 156.06,-180 150.06,-180"/>
<text text-anchor="middle" x="95.06" y="-165" font-family="sans" font-size="10.00">bcftools_mpileup_all</text>
<text text-anchor="middle" x="95.06" y="-154" font-family="sans" font-size="10.00">sample: /Astro1_MTHFR</text>
</g>
<!-- 2&#45;&gt;4 -->
<g id="edge10" class="edge">
<title>2&#45;&gt;4</title>
<path fill="none" stroke="grey" stroke-width="2" d="M301.04,-218.61C298.01,-217.71 294.99,-216.84 292.06,-216 251.9,-204.5 206.92,-192.35 170.09,-182.58"/>
<polygon fill="grey" stroke="grey" stroke-width="2" points="170.99,-179.2 160.43,-180.03 169.2,-185.97 170.99,-179.2"/>
</g>
<!-- 8 -->
<g id="node9" class="node">
<title>8</title>
<path fill="none" stroke="#d8a456" stroke-width="2" stroke-dasharray="5,2" d="M302.06,-180C302.06,-180 192.06,-180 192.06,-180 186.06,-180 180.06,-174 180.06,-168 180.06,-168 180.06,-156 180.06,-156 180.06,-150 186.06,-144 192.06,-144 192.06,-144 302.06,-144 302.06,-144 308.06,-144 314.06,-150 314.06,-156 314.06,-156 314.06,-168 314.06,-168 314.06,-174 308.06,-180 302.06,-180"/>
<text text-anchor="middle" x="247.06" y="-165" font-family="sans" font-size="10.00">bcftools_mpileup_all</text>
<text text-anchor="middle" x="247.06" y="-154" font-family="sans" font-size="10.00">sample: /Astro4_MTHFR</text>
</g>
<!-- 2&#45;&gt;8 -->
<g id="edge15" class="edge">
<title>2&#45;&gt;8</title>
<path fill="none" stroke="grey" stroke-width="2" d="M323.36,-215.88C310.39,-206.89 294.33,-195.76 280.3,-186.03"/>
<polygon fill="grey" stroke="grey" stroke-width="2" points="282.08,-183.01 271.87,-180.19 278.09,-188.76 282.08,-183.01"/>
</g>
<!-- 12 -->
<g id="node13" class="node">
<title>12</title>
<path fill="none" stroke="#d8a456" stroke-width="2" stroke-dasharray="5,2" d="M492.06,-180C492.06,-180 382.06,-180 382.06,-180 376.06,-180 370.06,-174 370.06,-168 370.06,-168 370.06,-156 370.06,-156 370.06,-150 376.06,-144 382.06,-144 382.06,-144 492.06,-144 492.06,-144 498.06,-144 504.06,-150 504.06,-156 504.06,-156 504.06,-168 504.06,-168 504.06,-174 498.06,-180 492.06,-180"/>
<text text-anchor="middle" x="437.06" y="-165" font-family="sans" font-size="10.00">bcftools_mpileup_all</text>
<text text-anchor="middle" x="437.06" y="-154" font-family="sans" font-size="10.00">sample: /Astro5_MTHFR</text>
</g>
<!-- 2&#45;&gt;12 -->
<g id="edge20" class="edge">
<title>2&#45;&gt;12</title>
<path fill="none" stroke="grey" stroke-width="2" d="M370.06,-215.7C381.27,-206.88 395.07,-196.03 407.22,-186.47"/>
<polygon fill="grey" stroke="grey" stroke-width="2" points="409.62,-189.04 415.32,-180.1 405.29,-183.54 409.62,-189.04"/>
</g>
<!-- 16 -->
<g id="node17" class="node">
<title>16</title>
<path fill="none" stroke="#d8a456" stroke-width="2" stroke-dasharray="5,2" d="M644.06,-180C644.06,-180 534.06,-180 534.06,-180 528.06,-180 522.06,-174 522.06,-168 522.06,-168 522.06,-156 522.06,-156 522.06,-150 528.06,-144 534.06,-144 534.06,-144 644.06,-144 644.06,-144 650.06,-144 656.06,-150 656.06,-156 656.06,-156 656.06,-168 656.06,-168 656.06,-174 650.06,-180 644.06,-180"/>
<text text-anchor="middle" x="589.06" y="-165" font-family="sans" font-size="10.00">bcftools_mpileup_all</text>
<text text-anchor="middle" x="589.06" y="-154" font-family="sans" font-size="10.00">sample: /Astro3_MTHFR</text>
</g>
<!-- 2&#45;&gt;16 -->
<g id="edge25" class="edge">
<title>2&#45;&gt;16</title>
<path fill="none" stroke="grey" stroke-width="2" d="M395.1,-218.66C398.13,-217.76 401.14,-216.86 404.06,-216 441.83,-204.86 484.04,-192.74 518.59,-182.91"/>
<polygon fill="grey" stroke="grey" stroke-width="2" points="519.93,-186.17 528.59,-180.07 518.01,-179.43 519.93,-186.17"/>
</g>
<!-- 20 -->
<g id="node21" class="node">
<title>20</title>
<path fill="none" stroke="#d8a456" stroke-width="2" stroke-dasharray="5,2" d="M796.06,-180C796.06,-180 686.06,-180 686.06,-180 680.06,-180 674.06,-174 674.06,-168 674.06,-168 674.06,-156 674.06,-156 674.06,-150 680.06,-144 686.06,-144 686.06,-144 796.06,-144 796.06,-144 802.06,-144 808.06,-150 808.06,-156 808.06,-156 808.06,-168 808.06,-168 808.06,-174 802.06,-180 796.06,-180"/>
<text text-anchor="middle" x="741.06" y="-165" font-family="sans" font-size="10.00">bcftools_mpileup_all</text>
<text text-anchor="middle" x="741.06" y="-154" font-family="sans" font-size="10.00">sample: /Astro2_MTHFR</text>
</g>
<!-- 2&#45;&gt;20 -->
<g id="edge30" class="edge">
<title>2&#45;&gt;20</title>
<path fill="none" stroke="grey" stroke-width="2" d="M395.28,-218.09C398.24,-217.34 401.19,-216.63 404.06,-216 515.32,-191.6 548.05,-200.28 664.01,-180.09"/>
<polygon fill="grey" stroke="grey" stroke-width="2" points="664.75,-183.52 673.99,-178.32 663.53,-176.62 664.75,-183.52"/>
</g>
<!-- 3 -->
<g id="node4" class="node">
<title>3</title>
<path fill="none" stroke="#78d856" stroke-width="2" stroke-dasharray="5,2" d="M150.56,-108C150.56,-108 97.56,-108 97.56,-108 91.56,-108 85.56,-102 85.56,-96 85.56,-96 85.56,-84 85.56,-84 85.56,-78 91.56,-72 97.56,-72 97.56,-72 150.56,-72 150.56,-72 156.56,-72 162.56,-78 162.56,-84 162.56,-84 162.56,-96 162.56,-96 162.56,-102 156.56,-108 150.56,-108"/>
<text text-anchor="middle" x="124.06" y="-87.5" font-family="sans" font-size="10.00">bcftools_call</text>
</g>
<!-- 3&#45;&gt;0 -->
<g id="edge3" class="edge">
<title>3&#45;&gt;0</title>
<path fill="none" stroke="grey" stroke-width="2" d="M162.79,-76.57C203.17,-63.6 265.98,-43.43 305.53,-30.73"/>
<polygon fill="grey" stroke="grey" stroke-width="2" points="306.6,-34.06 315.05,-27.67 304.46,-27.4 306.6,-34.06"/>
</g>
<!-- 4&#45;&gt;3 -->
<g id="edge8" class="edge">
<title>4&#45;&gt;3</title>
<path fill="none" stroke="grey" stroke-width="2" d="M102.23,-143.7C105.5,-135.81 109.44,-126.3 113.07,-117.55"/>
<polygon fill="grey" stroke="grey" stroke-width="2" points="116.38,-118.68 116.98,-108.1 109.92,-116 116.38,-118.68"/>
</g>
<!-- 5 -->
<g id="node6" class="node">
<title>5</title>
<path fill="none" stroke="#56a2d8" stroke-width="2" stroke-dasharray="5,2" d="M133.06,-252C133.06,-252 71.06,-252 71.06,-252 65.06,-252 59.06,-246 59.06,-240 59.06,-240 59.06,-228 59.06,-228 59.06,-222 65.06,-216 71.06,-216 71.06,-216 133.06,-216 133.06,-216 139.06,-216 145.06,-222 145.06,-228 145.06,-228 145.06,-240 145.06,-240 145.06,-246 139.06,-252 133.06,-252"/>
<text text-anchor="middle" x="102.06" y="-231.5" font-family="sans" font-size="10.00">samtools_sort</text>
</g>
<!-- 5&#45;&gt;4 -->
<g id="edge9" class="edge">
<title>5&#45;&gt;4</title>
<path fill="none" stroke="grey" stroke-width="2" d="M100.33,-215.7C99.56,-207.98 98.63,-198.71 97.77,-190.11"/>
<polygon fill="grey" stroke="grey" stroke-width="2" points="101.25,-189.71 96.77,-180.1 94.29,-190.4 101.25,-189.71"/>
</g>
<!-- 6&#45;&gt;5 -->
<g id="edge11" class="edge">
<title>6&#45;&gt;5</title>
<path fill="none" stroke="grey" stroke-width="2" d="M107.33,-287.7C106.56,-279.98 105.63,-270.71 104.77,-262.11"/>
<polygon fill="grey" stroke="grey" stroke-width="2" points="108.25,-261.71 103.77,-252.1 101.29,-262.4 108.25,-261.71"/>
</g>
<!-- 7 -->
<g id="node8" class="node">
<title>7</title>
<path fill="none" stroke="#78d856" stroke-width="2" stroke-dasharray="5,2" d="M287.56,-108C287.56,-108 234.56,-108 234.56,-108 228.56,-108 222.56,-102 222.56,-96 222.56,-96 222.56,-84 222.56,-84 222.56,-78 228.56,-72 234.56,-72 234.56,-72 287.56,-72 287.56,-72 293.56,-72 299.56,-78 299.56,-84 299.56,-84 299.56,-96 299.56,-96 299.56,-102 293.56,-108 287.56,-108"/>
<text text-anchor="middle" x="261.06" y="-87.5" font-family="sans" font-size="10.00">bcftools_call</text>
</g>
<!-- 7&#45;&gt;0 -->
<g id="edge4" class="edge">
<title>7&#45;&gt;0</title>
<path fill="none" stroke="grey" stroke-width="2" d="M281.09,-71.7C291.19,-62.97 303.6,-52.24 314.58,-42.75"/>
<polygon fill="grey" stroke="grey" stroke-width="2" points="316.99,-45.29 322.27,-36.1 312.42,-39.99 316.99,-45.29"/>
</g>
<!-- 8&#45;&gt;7 -->
<g id="edge13" class="edge">
<title>8&#45;&gt;7</title>
<path fill="none" stroke="grey" stroke-width="2" d="M250.52,-143.7C252.07,-135.98 253.92,-126.71 255.64,-118.11"/>
<polygon fill="grey" stroke="grey" stroke-width="2" points="259.11,-118.6 257.64,-108.1 252.25,-117.22 259.11,-118.6"/>
</g>
<!-- 9 -->
<g id="node10" class="node">
<title>9</title>
<path fill="none" stroke="#56a2d8" stroke-width="2" stroke-dasharray="5,2" d="M271.06,-252C271.06,-252 209.06,-252 209.06,-252 203.06,-252 197.06,-246 197.06,-240 197.06,-240 197.06,-228 197.06,-228 197.06,-222 203.06,-216 209.06,-216 209.06,-216 271.06,-216 271.06,-216 277.06,-216 283.06,-222 283.06,-228 283.06,-228 283.06,-240 283.06,-240 283.06,-246 277.06,-252 271.06,-252"/>
<text text-anchor="middle" x="240.06" y="-231.5" font-family="sans" font-size="10.00">samtools_sort</text>
</g>
<!-- 9&#45;&gt;8 -->
<g id="edge14" class="edge">
<title>9&#45;&gt;8</title>
<path fill="none" stroke="grey" stroke-width="2" d="M241.79,-215.7C242.56,-207.98 243.49,-198.71 244.35,-190.11"/>
<polygon fill="grey" stroke="grey" stroke-width="2" points="247.84,-190.4 245.35,-180.1 240.88,-189.71 247.84,-190.4"/>
</g>
<!-- 10&#45;&gt;9 -->
<g id="edge16" class="edge">
<title>10&#45;&gt;9</title>
<path fill="none" stroke="grey" stroke-width="2" d="M262.65,-287.7C259.27,-279.81 255.19,-270.3 251.44,-261.55"/>
<polygon fill="grey" stroke="grey" stroke-width="2" points="254.55,-259.92 247.39,-252.1 248.12,-262.67 254.55,-259.92"/>
</g>
<!-- 11 -->
<g id="node12" class="node">
<title>11</title>
<path fill="none" stroke="#78d856" stroke-width="2" stroke-dasharray="5,2" d="M449.56,-108C449.56,-108 396.56,-108 396.56,-108 390.56,-108 384.56,-102 384.56,-96 384.56,-96 384.56,-84 384.56,-84 384.56,-78 390.56,-72 396.56,-72 396.56,-72 449.56,-72 449.56,-72 455.56,-72 461.56,-78 461.56,-84 461.56,-84 461.56,-96 461.56,-96 461.56,-102 455.56,-108 449.56,-108"/>
<text text-anchor="middle" x="423.06" y="-87.5" font-family="sans" font-size="10.00">bcftools_call</text>
</g>
<!-- 11&#45;&gt;0 -->
<g id="edge5" class="edge">
<title>11&#45;&gt;0</title>
<path fill="none" stroke="grey" stroke-width="2" d="M403.04,-71.7C392.94,-62.97 380.53,-52.24 369.55,-42.75"/>
<polygon fill="grey" stroke="grey" stroke-width="2" points="371.71,-39.99 361.86,-36.1 367.13,-45.29 371.71,-39.99"/>
</g>
<!-- 12&#45;&gt;11 -->
<g id="edge18" class="edge">
<title>12&#45;&gt;11</title>
<path fill="none" stroke="grey" stroke-width="2" d="M433.6,-143.7C432.06,-135.98 430.21,-126.71 428.49,-118.11"/>
<polygon fill="grey" stroke="grey" stroke-width="2" points="431.88,-117.22 426.48,-108.1 425.01,-118.6 431.88,-117.22"/>
</g>
<!-- 13 -->
<g id="node14" class="node">
<title>13</title>
<path fill="none" stroke="#56a2d8" stroke-width="2" stroke-dasharray="5,2" d="M487.06,-252C487.06,-252 425.06,-252 425.06,-252 419.06,-252 413.06,-246 413.06,-240 413.06,-240 413.06,-228 413.06,-228 413.06,-222 419.06,-216 425.06,-216 425.06,-216 487.06,-216 487.06,-216 493.06,-216 499.06,-222 499.06,-228 499.06,-228 499.06,-240 499.06,-240 499.06,-246 493.06,-252 487.06,-252"/>
<text text-anchor="middle" x="456.06" y="-231.5" font-family="sans" font-size="10.00">samtools_sort</text>
</g>
<!-- 13&#45;&gt;12 -->
<g id="edge19" class="edge">
<title>13&#45;&gt;12</title>
<path fill="none" stroke="grey" stroke-width="2" d="M451.37,-215.7C449.25,-207.9 446.7,-198.51 444.35,-189.83"/>
<polygon fill="grey" stroke="grey" stroke-width="2" points="447.7,-188.84 441.71,-180.1 440.95,-190.67 447.7,-188.84"/>
</g>
<!-- 14&#45;&gt;13 -->
<g id="edge21" class="edge">
<title>14&#45;&gt;13</title>
<path fill="none" stroke="grey" stroke-width="2" d="M434.98,-287.7C438.14,-279.81 441.94,-270.3 445.44,-261.55"/>
<polygon fill="grey" stroke="grey" stroke-width="2" points="448.76,-262.69 449.22,-252.1 442.26,-260.09 448.76,-262.69"/>
</g>
<!-- 15 -->
<g id="node16" class="node">
<title>15</title>
<path fill="none" stroke="#78d856" stroke-width="2" stroke-dasharray="5,2" d="M579.56,-108C579.56,-108 526.56,-108 526.56,-108 520.56,-108 514.56,-102 514.56,-96 514.56,-96 514.56,-84 514.56,-84 514.56,-78 520.56,-72 526.56,-72 526.56,-72 579.56,-72 579.56,-72 585.56,-72 591.56,-78 591.56,-84 591.56,-84 591.56,-96 591.56,-96 591.56,-102 585.56,-108 579.56,-108"/>
<text text-anchor="middle" x="553.06" y="-87.5" font-family="sans" font-size="10.00">bcftools_call</text>
</g>
<!-- 15&#45;&gt;0 -->
<g id="edge6" class="edge">
<title>15&#45;&gt;0</title>
<path fill="none" stroke="grey" stroke-width="2" d="M514.36,-76.16C475.7,-63.33 416.71,-43.76 378.77,-31.18"/>
<polygon fill="grey" stroke="grey" stroke-width="2" points="379.72,-27.81 369.13,-27.98 377.52,-34.45 379.72,-27.81"/>
</g>
<!-- 16&#45;&gt;15 -->
<g id="edge23" class="edge">
<title>16&#45;&gt;15</title>
<path fill="none" stroke="grey" stroke-width="2" d="M580.16,-143.7C576.07,-135.73 571.11,-126.1 566.57,-117.26"/>
<polygon fill="grey" stroke="grey" stroke-width="2" points="569.55,-115.4 561.86,-108.1 563.32,-118.6 569.55,-115.4"/>
</g>
<!-- 17 -->
<g id="node18" class="node">
<title>17</title>
<path fill="none" stroke="#56a2d8" stroke-width="2" stroke-dasharray="5,2" d="M617.06,-252C617.06,-252 555.06,-252 555.06,-252 549.06,-252 543.06,-246 543.06,-240 543.06,-240 543.06,-228 543.06,-228 543.06,-222 549.06,-216 555.06,-216 555.06,-216 617.06,-216 617.06,-216 623.06,-216 629.06,-222 629.06,-228 629.06,-228 629.06,-240 629.06,-240 629.06,-246 623.06,-252 617.06,-252"/>
<text text-anchor="middle" x="586.06" y="-231.5" font-family="sans" font-size="10.00">samtools_sort</text>
</g>
<!-- 17&#45;&gt;16 -->
<g id="edge24" class="edge">
<title>17&#45;&gt;16</title>
<path fill="none" stroke="grey" stroke-width="2" d="M586.8,-215.7C587.14,-207.98 587.53,-198.71 587.9,-190.11"/>
<polygon fill="grey" stroke="grey" stroke-width="2" points="591.4,-190.25 588.33,-180.1 584.41,-189.95 591.4,-190.25"/>
</g>
<!-- 18&#45;&gt;17 -->
<g id="edge26" class="edge">
<title>18&#45;&gt;17</title>
<path fill="none" stroke="grey" stroke-width="2" d="M584.56,-287.7C584.78,-279.98 585.04,-270.71 585.29,-262.11"/>
<polygon fill="grey" stroke="grey" stroke-width="2" points="588.79,-262.2 585.57,-252.1 581.79,-262 588.79,-262.2"/>
</g>
<!-- 19 -->
<g id="node20" class="node">
<title>19</title>
<path fill="none" stroke="#78d856" stroke-width="2" stroke-dasharray="5,2" d="M720.56,-108C720.56,-108 667.56,-108 667.56,-108 661.56,-108 655.56,-102 655.56,-96 655.56,-96 655.56,-84 655.56,-84 655.56,-78 661.56,-72 667.56,-72 667.56,-72 720.56,-72 720.56,-72 726.56,-72 732.56,-78 732.56,-84 732.56,-84 732.56,-96 732.56,-96 732.56,-102 726.56,-108 720.56,-108"/>
<text text-anchor="middle" x="694.06" y="-87.5" font-family="sans" font-size="10.00">bcftools_call</text>
</g>
<!-- 19&#45;&gt;0 -->
<g id="edge7" class="edge">
<title>19&#45;&gt;0</title>
<path fill="none" stroke="grey" stroke-width="2" d="M655.39,-81.31C587.24,-67.76 446.63,-39.8 379.43,-26.43"/>
<polygon fill="grey" stroke="grey" stroke-width="2" points="379.78,-22.93 369.29,-24.42 378.42,-29.8 379.78,-22.93"/>
</g>
<!-- 20&#45;&gt;19 -->
<g id="edge28" class="edge">
<title>20&#45;&gt;19</title>
<path fill="none" stroke="grey" stroke-width="2" d="M729.45,-143.7C723.92,-135.47 717.22,-125.48 711.13,-116.42"/>
<polygon fill="grey" stroke="grey" stroke-width="2" points="714.03,-114.46 705.55,-108.1 708.22,-118.36 714.03,-114.46"/>
</g>
<!-- 21 -->
<g id="node22" class="node">
<title>21</title>
<path fill="none" stroke="#56a2d8" stroke-width="2" stroke-dasharray="5,2" d="M771.06,-252C771.06,-252 709.06,-252 709.06,-252 703.06,-252 697.06,-246 697.06,-240 697.06,-240 697.06,-228 697.06,-228 697.06,-222 703.06,-216 709.06,-216 709.06,-216 771.06,-216 771.06,-216 777.06,-216 783.06,-222 783.06,-228 783.06,-228 783.06,-240 783.06,-240 783.06,-246 777.06,-252 771.06,-252"/>
<text text-anchor="middle" x="740.06" y="-231.5" font-family="sans" font-size="10.00">samtools_sort</text>
</g>
<!-- 21&#45;&gt;20 -->
<g id="edge29" class="edge">
<title>21&#45;&gt;20</title>
<path fill="none" stroke="grey" stroke-width="2" d="M740.31,-215.7C740.42,-207.98 740.55,-198.71 740.68,-190.11"/>
<polygon fill="grey" stroke="grey" stroke-width="2" points="744.18,-190.15 740.82,-180.1 737.18,-190.05 744.18,-190.15"/>
</g>
<!-- 22&#45;&gt;21 -->
<g id="edge31" class="edge">
<title>22&#45;&gt;21</title>
<path fill="none" stroke="grey" stroke-width="2" d="M740.06,-287.7C740.06,-279.98 740.06,-270.71 740.06,-262.11"/>
<polygon fill="grey" stroke="grey" stroke-width="2" points="743.56,-262.1 740.06,-252.1 736.56,-262.1 743.56,-262.1"/>
</g>
</g>
</svg>
